<?xml version="1.0" standalone="no"?>
<!DOCTYPE svg PUBLIC "-//W3C//DTD SVG 20010904//EN"
 "http://www.w3.org/TR/2001/REC-SVG-20010904/DTD/svg10.dtd">
<svg version="1.0" xmlns="http://www.w3.org/2000/svg"
 width="458.000000pt" height="458.000000pt" viewBox="0 0 458.000000 458.000000"
 preserveAspectRatio="xMidYMid meet">
<metadata>
Created by potrace 1.16, written by Peter Selinger 2001-2019
</metadata>
<g transform="translate(0.000000,458.000000) scale(0.100000,-0.100000)"
fill="#000000" stroke="none">
<path d="M1088 4178 c-10 -6 -9 -11 5 -19 21 -12 23 -31 2 -23 -8 4 -15 1 -15
-5 0 -6 -7 -8 -16 -4 -9 3 -12 9 -7 12 4 3 9 15 10 26 1 11 0 14 -3 7 -3 -6
-10 -10 -14 -7 -5 3 -12 0 -16 -6 -5 -8 -3 -9 6 -4 9 6 10 2 4 -16 -4 -13 -6
-39 -5 -58 1 -19 -5 -41 -14 -51 -11 -12 -13 -20 -6 -25 6 -3 11 -1 11 6 0 8
4 8 15 -1 8 -7 15 -20 15 -28 0 -14 -2 -13 -13 1 -11 16 -14 16 -32 3 -17 -14
-18 -17 -5 -26 8 -5 11 -10 5 -10 -15 0 -17 -110 -2 -110 9 0 9 -2 0 -8 -10
-6 -10 -12 2 -28 9 -12 13 -13 10 -4 -4 12 2 16 24 18 16 1 32 -2 36 -8 5 -8
-14 -15 -37 -12 -3 1 -8 -5 -11 -12 -4 -9 3 -13 19 -13 14 0 21 4 17 10 -3 6
-1 7 5 3 6 -4 9 -13 6 -21 -3 -8 -2 -20 2 -27 6 -9 10 -6 14 11 4 16 13 25 28
26 12 1 22 -2 22 -7 0 -4 -9 -8 -20 -8 -11 0 -20 -6 -20 -13 0 -8 7 -14 15
-14 8 0 15 4 15 9 0 10 30 11 31 1 0 -5 2 -16 4 -25 3 -16 -6 -23 -27 -19 -5
0 -8 -3 -8 -8 0 -5 -9 -11 -20 -14 -16 -4 -20 -1 -18 11 4 24 -10 42 -30 41
-11 0 -12 -2 -4 -6 6 -2 10 -8 8 -12 -3 -4 6 -20 20 -37 14 -16 23 -23 19 -16
-4 7 0 12 9 12 9 0 15 -5 14 -12 -2 -7 8 -12 21 -13 13 0 26 -6 29 -14 3 -9 0
-11 -8 -6 -9 5 -11 4 -6 -4 6 -9 11 -9 24 1 13 11 15 11 9 -4 -3 -9 1 -22 9
-29 8 -7 14 -8 13 -3 -4 21 2 35 11 29 6 -3 10 -1 10 4 0 6 -4 11 -8 11 -14 0
-10 29 5 34 8 3 12 10 9 15 -3 5 1 11 8 14 10 4 15 -1 15 -16 0 -12 1 -31 1
-43 0 -15 6 -20 23 -18 12 1 25 3 30 3 4 1 7 5 7 10 0 6 -8 8 -19 6 -24 -4
-46 38 -28 53 19 15 46 11 41 -7 -3 -9 1 -6 7 7 7 12 16 22 21 22 5 0 7 -4 3
-9 -3 -5 -1 -12 5 -16 5 -3 10 1 10 10 0 8 -7 18 -15 21 -8 4 -13 10 -10 14 3
5 -3 7 -12 5 -10 -2 -20 -4 -23 -4 -3 -1 1 -5 9 -10 9 -6 4 -8 -18 -7 -18 0
-31 6 -31 13 0 7 3 12 8 12 16 -3 32 1 32 9 0 17 -39 10 -45 -8 -4 -11 -12
-17 -21 -13 -7 3 -14 0 -14 -7 0 -6 4 -9 9 -5 5 3 12 1 16 -5 6 -9 -8 -14 -28
-11 -4 1 -15 -6 -24 -14 -8 -9 -22 -14 -30 -11 -8 3 -11 2 -8 -3 9 -16 -12
-22 -24 -7 -8 10 -5 15 14 24 17 8 25 8 25 1 0 -6 5 -7 11 -4 6 5 4 12 -8 22
-10 8 -13 12 -6 9 14 -8 43 3 43 15 0 6 -8 6 -19 0 -20 -11 -31 -5 -31 17 0
12 3 12 15 2 15 -12 35 -6 35 11 0 13 26 39 39 39 5 0 12 -8 15 -17 3 -10 4
-6 2 9 -2 15 0 25 4 23 5 -3 10 2 14 10 3 8 1 17 -5 20 -5 4 -7 11 -3 16 3 5
0 16 -6 24 -7 8 -10 21 -7 28 3 7 -2 22 -10 32 -13 19 -14 19 -9 -7 5 -27 -7
-38 -19 -18 -3 6 -16 10 -28 10 -17 0 -19 -2 -7 -9 8 -6 18 -7 24 -4 5 3 6 1
2 -6 -4 -6 -12 -9 -17 -6 -5 4 -9 2 -9 -3 0 -12 27 -23 33 -14 2 4 3 2 1 -3
-1 -6 5 -20 13 -30 13 -19 14 -17 8 14 -5 31 -4 33 11 20 10 -8 12 -15 5 -17
-8 -3 -8 -9 0 -24 10 -18 8 -20 -25 -15 -20 3 -38 1 -41 -3 -6 -10 -48 0 -57
14 -5 7 -8 6 -8 -4 -1 -12 -2 -12 -10 1 -7 12 -5 26 5 45 13 25 13 30 0 40
-11 8 -12 13 -2 23 9 9 16 6 30 -11 10 -13 16 -17 12 -10 -4 8 1 12 14 12 12
0 21 5 21 11 0 8 4 8 14 -1 13 -10 13 -8 3 14 -8 16 -14 21 -19 13 -6 -9 -8
-9 -8 0 0 11 30 33 44 33 11 0 6 -28 -6 -34 -7 -3 -4 -4 7 -3 11 2 19 9 18 15
-2 7 2 12 7 12 6 0 8 -10 5 -23 -4 -14 -1 -28 8 -35 11 -9 14 -8 14 3 0 8 -4
15 -8 15 -5 0 -6 7 -3 15 4 8 1 22 -6 29 -9 12 -6 18 15 32 18 12 22 20 15 29
-5 6 -6 15 -2 19 4 4 1 6 -6 4 -21 -5 -40 33 -32 62 6 19 8 20 9 6 1 -10 9
-25 19 -33 16 -14 16 -14 -3 -8 -14 4 -17 3 -9 -5 6 -6 18 -8 28 -4 15 6 15 9
2 29 -12 18 -12 22 -1 22 8 0 16 -10 19 -22 7 -28 61 -31 63 -3 1 10 -2 18 -8
18 -5 0 -9 -7 -9 -15 0 -21 -17 -19 -29 4 -8 15 -7 20 5 25 9 3 20 4 24 1 5
-3 11 -1 15 5 10 17 -23 23 -39 7 -17 -16 -72 -16 -69 1 2 6 -4 9 -12 6 -8 -3
-17 -21 -21 -40 -3 -19 -10 -31 -15 -28 -5 3 -9 -5 -9 -18 0 -18 2 -20 10 -8
8 13 10 12 10 -4 0 -11 5 -16 14 -13 8 3 22 -1 33 -8 10 -8 13 -15 8 -15 -6 0
-17 6 -24 13 -11 10 -13 8 -8 -10 3 -13 -1 -27 -9 -34 -10 -8 -14 -8 -14 0 0
6 -6 11 -13 11 -8 0 -14 7 -14 15 0 11 4 12 14 4 9 -8 13 -8 13 -1 0 6 -8 15
-17 20 -12 7 -16 23 -16 56 0 25 -3 44 -7 41 -5 -3 -7 -20 -6 -38 3 -30 1 -33
-20 -29 -13 2 -21 8 -18 13 3 5 0 8 -7 7 -6 -2 -13 2 -16 8 -2 6 6 10 19 9 14
-2 22 -8 20 -16 -3 -11 -1 -11 8 -2 18 17 2 35 -23 27 -19 -6 -20 -5 -9 9 8 9
19 14 26 11 8 -3 16 1 19 9 4 10 -2 13 -18 11 -13 -1 -28 -5 -34 -8 -5 -3 -11
-1 -13 6 -3 8 -7 6 -11 -5 -3 -9 -3 -16 1 -14 4 1 8 -2 10 -8 1 -5 -4 -10 -10
-11 -23 -1 -28 7 -19 25 11 19 -7 25 -31 9z m77 -90 c5 -4 17 -5 26 -3 9 3 22
-1 29 -10 15 -18 0 -20 -19 -2 -11 10 -13 9 -8 -5 4 -13 1 -18 -11 -19 -14 0
-14 -2 3 -8 11 -5 22 -5 25 0 3 4 12 -1 19 -13 11 -18 11 -20 -3 -15 -21 8
-37 -22 -25 -45 8 -15 6 -18 -11 -18 -11 0 -20 5 -20 11 0 5 5 7 10 4 6 -3 10
-1 10 6 0 6 -8 9 -20 6 -11 -3 -18 -1 -14 4 3 5 0 9 -5 9 -6 0 -11 -5 -11 -11
0 -6 -7 -4 -15 5 -8 8 -12 22 -9 30 4 10 1 16 -7 16 -7 0 -9 -3 -6 -7 4 -3 0
-15 -10 -25 -15 -17 -15 -18 1 -18 9 0 19 -7 22 -15 4 -8 11 -12 17 -8 6 4 7
1 3 -6 -5 -7 -14 -10 -22 -7 -8 3 -13 0 -11 -7 1 -7 -7 -11 -20 -10 -16 2 -21
-2 -17 -12 5 -11 0 -14 -17 -13 -30 4 -41 18 -27 35 7 9 7 17 -2 28 -10 12 -9
15 5 15 9 0 19 -9 22 -20 6 -24 16 -25 32 -6 9 11 9 15 -1 18 -10 4 -10 8 1
21 12 15 9 21 -11 19 -3 -1 -12 6 -20 15 -11 15 -11 16 5 10 11 -4 17 -1 17 9
0 8 -3 13 -7 11 -5 -3 -9 11 -10 30 -2 43 0 41 21 -17 14 -36 16 -39 12 -12
-4 23 -2 32 9 32 8 0 12 -8 10 -20 -2 -11 1 -23 7 -26 7 -4 8 -2 4 4 -4 7 -1
12 7 12 9 0 13 -10 12 -30 -2 -30 8 -36 39 -24 20 8 21 24 1 24 -8 0 -19 10
-26 21 -10 20 -9 21 10 16 12 -3 19 -1 15 5 -3 5 -19 6 -35 3 -24 -5 -28 -4
-23 9 3 9 10 13 15 10 5 -3 9 -1 9 5 0 5 -4 13 -10 16 -5 3 -10 1 -10 -6 0 -7
-3 -9 -6 -6 -4 3 -15 2 -26 -4 -17 -9 -18 -8 -6 10 6 11 15 18 18 16 3 -2 12
0 20 5 11 7 18 3 25 -13 5 -12 14 -25 20 -29z"/>
<path d="M1470 4176 c-5 -5 -10 -15 -10 -20 0 -7 4 -6 8 1 12 19 30 1 21 -22
-5 -12 -8 -14 -8 -5 -1 17 -34 -26 -38 -48 -1 -8 -4 -17 -8 -20 -11 -12 4 49
16 64 6 8 8 14 4 14 -15 0 -34 -35 -35 -61 0 -15 8 -33 17 -40 15 -12 16 -12
11 2 -4 9 -1 25 7 35 7 11 13 22 14 27 0 4 4 6 9 5 4 -2 5 -7 3 -13 -3 -5 -5
-22 -4 -37 0 -28 -26 -46 -47 -33 -16 10 -24 -24 -11 -48 10 -19 10 -17 5 13
-6 35 -6 35 14 15 12 -12 16 -24 11 -30 -13 -13 -11 -22 6 -22 8 0 12 4 9 9
-3 4 1 8 10 8 8 0 16 -5 18 -12 2 -6 11 -13 19 -14 7 -2 24 -5 37 -8 25 -6 70
33 51 45 -6 3 -10 9 -10 13 5 39 1 44 -35 36 -24 -6 -34 -5 -31 3 1 5 14 11
28 12 13 1 33 6 43 10 14 6 17 5 12 -3 -5 -8 1 -12 16 -12 16 0 19 3 10 9 -10
6 -7 12 13 25 14 9 30 14 35 11 6 -3 10 -1 10 5 0 6 4 8 10 5 7 -4 7 2 1 18
-6 14 -7 28 -4 31 4 3 2 6 -4 6 -17 0 -23 -12 -13 -30 7 -14 6 -18 -5 -16 -8
1 -17 5 -21 9 -13 13 -25 -5 -13 -19 7 -9 8 -14 1 -14 -6 0 -13 4 -16 9 -9 14
4 41 19 41 8 0 17 5 21 12 5 7 3 8 -7 3 -12 -8 -12 -6 0 8 17 21 12 27 -28 33
-22 4 -31 1 -31 -9 0 -8 9 -14 20 -13 11 0 19 -3 19 -9 0 -5 -10 -9 -22 -7
-17 2 -23 -3 -24 -17 -1 -12 3 -23 8 -27 14 -8 -30 -54 -50 -53 -11 0 -12 2
-3 6 17 7 15 38 -5 54 -11 10 -14 10 -9 2 4 -7 4 -13 1 -13 -10 0 -31 24 -30
35 1 18 16 35 26 29 6 -4 6 -11 -2 -20 -6 -8 -7 -14 -3 -14 5 0 15 9 21 19 10
16 9 22 -3 32 -13 10 -17 10 -25 -2 -5 -8 -9 -9 -9 -3 0 14 -26 14 -40 0z"/>
<path d="M1791 4167 c13 -23 1 -60 -16 -53 -9 3 -12 0 -8 -9 3 -8 8 -13 12
-11 4 3 8 -12 9 -31 2 -20 11 -42 20 -49 19 -15 36 -13 38 4 3 24 4 26 16 14
8 -8 8 -15 -1 -26 -9 -11 -9 -17 2 -28 7 -7 12 -20 9 -28 -3 -9 2 -7 13 5 14
17 16 17 11 3 -3 -12 0 -18 9 -18 18 0 19 -12 4 -27 -8 -8 -8 -13 0 -18 8 -4
7 -11 -3 -21 -19 -18 -32 -18 -17 0 9 10 8 15 -4 20 -8 3 -15 11 -14 18 0 10
2 10 6 0 2 -6 9 -10 14 -6 18 11 9 22 -16 20 -25 -3 -64 28 -52 41 4 3 7 1 7
-6 0 -7 5 -9 10 -6 8 5 7 11 -1 21 -6 7 -15 12 -19 9 -11 -7 -40 40 -40 64 0
30 -42 50 -65 31 -10 -8 -26 -13 -64 -19 -3 -1 0 -6 7 -13 15 -15 16 -58 2
-58 -5 0 -10 -7 -10 -15 0 -8 5 -15 10 -15 6 0 10 -10 10 -22 0 -17 -3 -19 -9
-9 -7 11 -11 9 -20 -7 -9 -18 -9 -21 2 -16 14 5 30 -18 31 -46 0 -8 5 -19 11
-23 6 -5 4 -7 -5 -6 -36 4 -61 -2 -55 -12 4 -6 13 -8 21 -5 8 3 14 1 14 -5 0
-6 7 -9 15 -5 8 3 15 1 15 -3 0 -5 3 -18 6 -28 5 -15 4 -15 -5 -3 -12 17 -111
21 -123 5 -5 -6 -8 -4 -9 5 0 10 -3 9 -10 -5 -9 -18 -9 -18 -5 3 2 13 -1 25
-8 28 -6 2 -13 17 -14 32 -1 15 2 22 6 16 4 -6 18 -9 32 -7 14 2 31 4 38 5 9
1 8 6 -4 19 -10 11 -12 19 -5 24 10 6 15 -1 12 -17 0 -5 4 -8 9 -8 6 0 10 10
10 21 0 17 -5 20 -25 17 -21 -4 -23 -3 -14 9 9 11 8 12 -5 7 -17 -7 -23 -54
-5 -54 5 0 7 -5 4 -11 -4 -6 -14 -7 -24 -4 -40 16 -46 13 -47 -21 0 -22 4 -34
13 -34 7 0 13 -5 13 -10 0 -7 -6 -7 -19 0 -11 5 -29 10 -41 10 -16 0 -20 5
-16 15 3 10 -1 15 -12 16 -14 0 -14 2 3 8 24 10 53 2 35 -9 -8 -5 -9 -10 -2
-14 6 -3 13 -2 16 3 10 16 -4 39 -22 36 -9 -1 -23 2 -29 8 -9 6 -13 6 -13 -1
0 -5 -9 -12 -21 -15 -13 -4 -18 -10 -14 -17 6 -9 10 -9 16 1 7 12 9 12 9 1 0
-8 10 -23 23 -34 12 -11 17 -17 11 -14 -12 6 -29 -21 -25 -39 2 -5 -1 -7 -4
-3 -4 4 -16 3 -26 -3 -15 -7 -19 -6 -19 6 0 8 -4 15 -10 15 -5 0 -10 7 -10 15
0 8 7 15 16 15 8 0 12 -4 9 -10 -3 -5 1 -10 9 -10 9 0 19 0 24 0 4 0 7 5 7 12
0 7 -17 13 -42 14 -23 1 -41 -2 -40 -6 1 -5 -1 -8 -5 -9 -5 -1 -8 1 -8 4 0 3
0 12 0 20 0 10 9 14 30 11 17 -2 30 1 30 5 0 5 -7 9 -15 9 -8 0 -15 4 -15 10
0 5 7 7 15 4 8 -4 15 -2 15 4 0 5 -9 12 -20 15 -11 3 -20 11 -20 17 0 10 3 10
14 1 17 -14 53 3 60 29 3 11 4 10 5 -4 1 -11 6 -16 14 -13 8 3 20 1 28 -4 11
-7 11 -9 -3 -9 -10 0 -18 -4 -18 -10 0 -6 9 -5 24 1 17 8 23 18 21 31 -3 15 0
18 11 14 9 -3 17 -6 20 -6 2 0 1 -7 -2 -15 -4 -9 0 -15 10 -15 13 0 14 4 5 24
-11 24 -56 31 -52 8 2 -7 -4 -12 -12 -12 -8 0 -12 6 -9 14 6 16 -12 31 -21 17
-3 -6 -13 -7 -21 -4 -10 4 -17 -2 -21 -16 -3 -11 -10 -18 -16 -14 -6 3 -7 1
-3 -5 4 -7 3 -12 -2 -12 -11 0 -33 46 -25 54 13 12 22 5 16 -11 -4 -14 -3 -15
6 -7 7 6 13 18 14 25 2 8 6 19 10 26 4 6 4 14 -1 17 -5 3 -6 28 -2 56 4 28 3
53 -2 56 -4 3 -8 -14 -8 -38 0 -42 -1 -42 -14 -18 -8 17 -10 29 -3 38 5 7 7
15 3 19 -3 3 -6 1 -6 -5 0 -7 -5 -12 -11 -12 -5 0 -7 5 -4 10 3 6 2 10 -3 10
-6 0 -13 -7 -16 -16 -3 -8 -2 -13 2 -10 4 2 12 -6 18 -18 9 -19 7 -25 -8 -35
-11 -7 -18 -7 -18 -1 0 5 -5 10 -11 10 -8 0 -8 -4 1 -15 16 -19 31 -85 19 -85
-5 0 -9 9 -9 19 0 11 -4 22 -9 25 -9 6 -7 -37 4 -54 3 -5 11 -8 16 -5 5 3 6
-1 2 -10 -3 -10 -8 -13 -12 -6 -4 6 -12 7 -21 1 -11 -7 -11 -10 -2 -10 9 0 10
-5 2 -19 -7 -15 -7 -22 2 -27 7 -4 10 -4 6 1 -13 14 13 37 28 24 17 -14 6 -39
-18 -39 -15 0 -18 -5 -13 -21 5 -14 4 -19 -4 -15 -7 5 -9 1 -5 -8 6 -14 11
-17 30 -15 3 0 18 -15 34 -33 27 -30 28 -35 15 -55 -19 -29 -19 -53 0 -27 13
17 14 17 15 2 0 -9 -7 -21 -16 -26 -9 -5 -17 -13 -17 -18 -1 -5 -5 -8 -9 -6
-5 1 -8 -6 -8 -15 1 -14 7 -11 29 13 27 30 29 30 40 12 10 -17 15 -17 28 -6
14 11 15 10 9 -8 -4 -13 -1 -26 9 -34 11 -9 12 -17 4 -31 -7 -13 -6 -19 1 -19
6 0 8 -5 5 -10 -4 -6 -12 -7 -18 -3 -7 4 -6 -1 2 -10 14 -18 9 -32 -12 -32 -7
0 -12 -4 -12 -10 0 -5 -4 -15 -8 -22 -14 -21 10 -23 29 -2 11 12 18 23 17 25
-10 15 0 14 11 -1 12 -17 12 -21 -2 -31 -12 -9 -11 -10 9 -8 13 1 26 3 28 3 2
1 -2 8 -9 16 -10 12 -10 15 2 15 8 0 15 7 15 15 0 13 -3 13 -18 -1 -16 -14
-18 -14 -25 8 -8 26 -5 33 16 33 8 0 16 7 18 16 1 9 -4 16 -12 16 -8 0 -13 -4
-10 -9 3 -4 0 -8 -5 -8 -6 0 -11 4 -11 9 0 10 30 37 39 34 3 -1 8 1 11 4 3 3
-5 4 -17 1 -15 -4 -20 -2 -16 8 3 7 10 12 16 11 8 -1 11 12 10 38 -1 22 1 30
4 17 3 -14 11 -21 20 -20 9 2 18 -3 21 -11 3 -9 0 -12 -10 -9 -8 4 -15 0 -15
-6 0 -13 36 -14 55 -2 6 3 9 32 7 63 -2 32 -4 68 -4 80 -1 37 -30 16 -33 -25
-2 -19 -9 -38 -17 -40 -11 -4 -12 0 -6 14 4 11 10 31 13 46 6 35 37 46 64 21
12 -10 18 -13 14 -6 -4 7 2 17 14 23 17 9 22 7 30 -16 6 -15 8 -29 5 -32 -2
-3 -9 6 -14 19 -5 13 -10 19 -10 12 -1 -6 -4 -19 -7 -28 -5 -11 -2 -16 7 -15
8 1 21 2 29 1 13 -1 13 -3 1 -10 -8 -5 -20 -7 -27 -4 -8 3 -11 -2 -9 -14 2
-10 4 -21 4 -24 1 -4 11 -6 23 -5 16 1 23 -5 25 -19 2 -11 0 -14 -3 -7 -9 19
-23 14 -21 -9 1 -13 7 -19 17 -16 11 3 17 -4 18 -20 1 -17 -2 -22 -11 -17 -6
4 -9 4 -5 -1 4 -4 3 -14 -3 -21 -7 -8 -7 -14 1 -19 8 -5 7 -12 -2 -23 -10 -14
-10 -15 2 -4 17 14 34 16 25 2 -3 -5 -1 -10 5 -10 7 0 10 -6 7 -12 -2 -7 0
-23 4 -36 5 -13 5 -21 1 -18 -5 3 -9 -1 -9 -8 0 -8 6 -12 13 -9 6 2 15 0 19
-6 3 -6 2 -11 -3 -11 -6 0 -13 -7 -16 -16 -5 -14 -4 -15 9 -4 12 10 15 10 15
-1 0 -12 2 -12 9 -1 11 18 12 18 40 3 13 -7 21 -8 17 -3 -4 7 9 9 38 7 38 -3
44 -1 39 13 -4 10 -8 12 -11 4 -2 -7 -8 -12 -14 -12 -6 0 -7 8 -3 18 11 25 12
54 4 85 -5 18 -4 27 4 27 7 0 6 4 -3 10 -13 9 -13 10 0 10 13 0 13 1 0 10 -8
5 -11 10 -5 10 5 0 4 5 -3 12 -17 17 -15 58 3 58 8 0 15 5 15 10 0 6 -11 8
-25 4 -23 -6 -25 -4 -24 27 1 24 3 27 6 12 2 -13 8 -23 12 -23 5 0 6 11 3 25
-2 14 -8 25 -12 25 -5 0 -13 14 -19 30 -5 17 -6 30 -1 30 11 0 31 -35 25 -42
-3 -3 4 -13 14 -22 12 -11 17 -25 14 -34 -4 -10 -3 -14 2 -10 9 8 56 -73 48
-84 -2 -5 0 -8 6 -8 6 0 15 -9 21 -20 8 -15 8 -18 -3 -14 -8 3 -17 -2 -20 -10
-4 -9 -14 -16 -23 -16 -10 0 -14 -3 -11 -7 4 -3 18 -1 31 7 21 11 27 10 44 -6
10 -11 22 -28 26 -38 5 -16 4 -17 -9 -6 -8 7 -12 17 -9 22 4 6 -3 5 -15 -2
-18 -9 -21 -30 -5 -30 3 0 2 5 -2 11 -4 7 -1 10 7 7 8 -3 13 -11 11 -17 -1 -7
2 -10 7 -7 10 7 51 -31 51 -46 0 -7 -15 -12 -31 -10 -4 1 -9 -7 -12 -17 -2
-10 1 -18 9 -18 7 0 11 3 9 7 -6 10 37 28 53 23 10 -4 10 -8 0 -21 -9 -12 -6
-12 9 2 13 11 31 16 43 13 11 -3 18 -1 15 3 -3 5 -1 11 5 15 5 3 10 2 10 -3 0
-5 7 -9 15 -9 11 0 12 4 4 13 -7 9 -4 14 13 19 42 12 67 28 61 39 -4 6 1 5 10
-3 11 -9 17 -10 17 -2 0 6 5 11 11 11 5 0 9 -9 7 -20 -2 -10 0 -19 5 -20 27
-1 31 1 17 10 -12 8 -9 10 13 10 27 0 27 0 10 -27 l-17 -28 22 22 c18 18 27
20 51 13 46 -13 54 -20 40 -36 -9 -11 -9 -14 0 -14 7 0 10 -4 7 -8 -3 -5 1 -9
8 -9 7 0 13 10 13 21 1 40 3 46 17 46 8 0 27 11 42 25 24 23 52 26 39 4 -4 -5
-1 -9 4 -9 6 0 11 5 11 11 0 5 4 8 8 5 4 -2 14 0 22 5 11 7 7 8 -12 5 -32 -5
-38 16 -14 50 13 19 23 54 25 93 1 7 7 11 14 8 6 -2 18 2 25 9 10 11 10 14 0
14 -9 0 -9 3 2 11 13 9 13 10 0 6 -8 -2 -14 -10 -12 -16 1 -7 -2 -10 -8 -6
-18 11 -10 31 18 43 16 7 19 9 5 6 -19 -4 -22 -1 -21 28 0 46 8 69 20 62 6 -4
5 -10 -3 -15 -10 -6 -10 -9 -2 -9 19 0 24 17 8 30 -9 7 -14 27 -12 50 1 25 6
35 12 30 13 -10 14 78 2 98 -5 7 -3 12 3 12 12 0 4 38 -12 55 -6 6 -7 0 -4
-17 2 -16 1 -28 -4 -28 -6 0 -10 24 -11 53 -1 28 -2 77 -2 108 -1 41 -5 55
-14 52 -7 -3 -10 -10 -7 -17 3 -6 0 -4 -8 5 -16 19 -172 27 -183 9 -3 -5 -11
-8 -16 -5 -5 4 -9 -1 -9 -10 0 -8 -7 -18 -15 -21 -8 -4 -15 -12 -15 -20 0 -9
-10 -13 -27 -12 -14 2 -28 -2 -30 -7 -8 -25 -44 -75 -53 -75 -6 0 -8 6 -4 13
4 6 4 9 -1 5 -4 -4 -16 -3 -25 2 -14 8 -22 4 -35 -17 -17 -25 -17 -26 0 -19
13 4 16 2 11 -9 -3 -8 -1 -15 5 -15 7 0 9 10 5 25 -5 19 -2 25 9 25 9 0 18 -7
21 -15 4 -8 11 -12 18 -8 6 3 6 1 -1 -8 -7 -7 -13 -25 -13 -40 0 -15 -4 -30
-9 -33 -4 -3 -6 5 -4 18 4 19 1 23 -19 22 -12 -1 -27 3 -31 9 -4 5 -5 -3 -1
-19 5 -22 4 -27 -6 -21 -9 5 -11 4 -6 -4 9 -14 26 -5 26 14 0 9 6 12 16 8 8
-3 13 -12 10 -19 -3 -7 -1 -16 4 -19 6 -4 10 -11 10 -17 0 -7 -4 -7 -13 1 -10
8 -14 7 -14 -4 0 -8 7 -15 15 -15 10 0 12 -6 7 -17 -4 -10 -8 -24 -8 -30 0 -7
-3 -13 -7 -13 -3 0 -6 -9 -6 -20 0 -11 3 -20 6 -20 3 0 5 -13 5 -30 1 -16 -4
-29 -10 -29 -23 3 -35 -2 -35 -12 0 -8 5 -8 15 1 11 9 15 9 15 1 0 -7 5 -9 13
-5 9 6 9 4 -1 -8 -10 -13 -10 -18 -1 -24 8 -5 10 -3 4 7 -6 10 -5 11 3 4 6 -5
12 -21 14 -35 2 -14 7 -31 12 -38 4 -7 5 -16 2 -19 -3 -3 4 -18 14 -34 13 -17
17 -30 10 -34 -6 -4 -8 -11 -5 -16 4 -5 -1 -9 -9 -9 -9 0 -13 7 -11 20 2 11
-1 22 -7 26 -7 4 -5 10 3 16 11 8 11 9 1 6 -8 -2 -13 -7 -13 -11 1 -4 1 -22 1
-41 0 -30 2 -33 25 -28 14 2 25 11 26 21 0 10 4 7 11 -9 6 -14 10 -28 10 -32
-1 -5 3 -8 10 -8 19 0 -1 -14 -23 -15 -13 -1 -18 3 -15 12 3 7 1 13 -4 13 -6
0 -10 -4 -10 -10 0 -5 -5 -10 -11 -10 -5 0 -7 6 -3 13 6 10 4 10 -7 0 -7 -7
-19 -13 -26 -13 -17 0 -17 37 0 43 8 4 7 6 -3 6 -11 1 -16 14 -18 46 -1 24 -7
57 -13 72 -7 19 -7 29 0 31 16 5 13 22 -4 22 -11 0 -15 13 -16 53 -1 28 -1 56
0 61 1 4 -4 15 -11 23 -9 12 -9 16 3 24 12 8 11 11 -4 20 -14 8 -16 14 -6 25
9 11 8 18 -2 30 -7 9 -14 26 -15 37 -2 12 0 17 2 10 6 -13 34 -6 34 9 0 5 -4
6 -10 3 -5 -3 -10 -1 -10 5 0 6 -4 8 -10 5 -14 -9 -12 39 2 53 9 9 8 12 -6 12
-13 0 -17 5 -13 20 3 10 0 21 -7 24 -7 3 -7 5 2 5 6 1 12 6 12 12 0 5 -4 8 -9
5 -5 -3 -11 3 -14 14 -3 10 0 21 7 24 7 3 7 5 -1 5 -7 1 -13 8 -13 16 0 17
-65 22 -75 5 -4 -6 -10 -8 -14 -5 -5 2 -17 -3 -27 -11 -10 -9 -13 -13 -6 -9 6
3 12 2 12 -3 0 -5 -9 -12 -20 -15 -26 -7 -23 -53 4 -72 9 -7 13 -16 8 -19 -6
-3 -8 -15 -5 -26 3 -11 1 -20 -5 -20 -6 0 -13 8 -15 18 -4 14 -5 14 -6 1 0 -9
5 -22 13 -28 11 -10 16 -8 21 8 3 12 3 26 -1 32 -4 8 -3 9 4 5 7 -4 10 -22 8
-42 -3 -19 -1 -34 4 -34 4 0 8 -10 8 -23 0 -16 -7 -23 -22 -25 -16 -1 -18 1
-6 8 13 8 12 10 -2 10 -10 0 -18 4 -18 10 0 5 6 8 13 6 6 -1 9 -1 4 1 -4 3 -5
9 -2 14 4 5 -2 6 -11 2 -12 -4 -15 -3 -10 5 4 7 2 12 -4 12 -7 0 -9 -8 -4 -22
5 -13 8 -33 7 -45 0 -13 3 -21 7 -18 5 3 11 1 15 -5 3 -5 12 -10 18 -10 7 0 6
4 -3 10 -8 5 -10 10 -4 10 6 0 18 -8 25 -17 8 -10 9 -14 2 -10 -6 4 -14 3 -18
-3 -3 -5 1 -10 9 -10 9 0 16 -7 16 -15 0 -8 -5 -15 -11 -15 -5 0 -8 4 -5 8 3
5 -10 4 -29 -2 -36 -11 -42 -27 -12 -32 9 -1 15 2 11 7 -3 5 2 9 10 9 9 0 15
-6 13 -12 -1 -7 4 -12 11 -10 6 1 12 -2 12 -8 0 -5 -5 -10 -10 -10 -6 0 -5 -8
2 -20 11 -17 10 -22 -2 -30 -13 -8 -12 -10 3 -10 9 0 17 -7 17 -15 0 -13 -4
-12 -21 4 -12 11 -18 24 -15 30 4 5 1 13 -5 16 -5 4 -8 14 -5 22 3 8 1 11 -4
8 -14 -8 -50 13 -50 30 0 7 -6 16 -12 19 -10 3 -9 8 2 18 9 7 16 24 15 38 0
14 4 28 8 31 5 3 0 14 -10 24 -19 19 -19 20 0 45 10 12 9 13 -3 4 -19 -13 -50
-12 -50 1 0 6 9 9 20 9 11 -1 17 2 15 6 -3 4 2 13 11 20 11 10 12 15 2 21 -6
4 -16 5 -21 2 -5 -3 -3 -9 4 -14 10 -6 7 -9 -10 -9 -16 0 -21 4 -18 15 4 8 2
17 -3 20 -6 4 -10 11 -10 17 0 7 4 7 13 -1 10 -8 14 -7 14 2 0 7 -16 13 -41
14 -23 1 -36 -1 -29 -3 7 -3 10 -11 7 -19 -4 -9 1 -12 13 -11 32 6 36 -6 7
-25 -15 -10 -31 -16 -34 -14 -5 3 -4 95 2 131 2 19 33 9 37 -12 3 -16 1 -17
-13 -5 -17 14 -21 5 -8 -16 5 -8 13 -9 22 -3 8 5 19 5 25 0 8 -7 12 -5 12 5 0
8 -4 12 -8 10 -3 -3 -12 9 -19 25 -10 24 -15 28 -26 19 -8 -6 -14 -7 -14 -2 0
5 -9 9 -19 9 -16 0 -18 -4 -10 -19z m732 -337 c-3 -120 -9 -169 -27 -218 -23
-60 -38 -82 -59 -82 -18 0 -42 45 -31 61 3 5 0 9 -7 9 -9 0 -9 3 0 14 9 11 9
16 0 22 -8 5 -9 3 -4 -6 5 -9 4 -11 -4 -6 -6 4 -9 12 -5 17 3 5 0 17 -7 25 -6
8 -9 17 -6 21 4 3 1 13 -6 21 -9 13 -9 14 1 8 7 -4 12 -2 12 5 0 8 4 8 15 -1
10 -9 15 -9 15 -1 0 10 -12 15 -35 12 -5 0 -11 13 -12 30 -1 16 1 28 5 25 4
-2 8 16 9 42 1 54 20 73 69 66 19 -2 33 -1 33 4 -3 16 2 19 24 18 21 -1 22 -4
20 -86z"/>
<path d="M560 3565 c-9 -17 -10 -28 -2 -37 15 -19 15 -30 2 -38 -8 -5 -9 -13
-4 -21 5 -8 7 -22 6 -31 -2 -10 2 -18 7 -18 15 0 14 33 -1 49 -11 10 -9 11 6
5 11 -4 21 -2 27 7 6 9 9 10 9 2 0 -6 -4 -15 -10 -18 -15 -9 -12 -42 5 -49 12
-4 14 0 11 20 -3 16 0 27 10 31 8 3 14 9 14 15 0 5 -5 6 -11 2 -7 -4 -10 -1
-7 7 3 8 13 16 23 18 14 2 17 -2 12 -18 -3 -12 -2 -21 2 -21 4 0 8 -7 8 -15 0
-8 -5 -11 -11 -7 -20 12 -34 10 -32 -4 3 -21 16 -30 16 -11 0 14 4 13 22 -5
14 -14 23 -18 26 -10 2 7 13 12 25 12 20 0 21 0 1 -16 -10 -8 -13 -13 -6 -9 8
4 12 -2 12 -19 0 -14 6 -26 13 -26 6 0 -1 -7 -17 -15 -33 -17 -48 -20 -26 -4
12 9 11 10 -8 6 -13 -3 -20 -1 -16 5 3 5 15 7 25 5 14 -4 19 -1 17 11 -5 26
-38 45 -38 21 0 -5 5 -7 10 -4 6 3 10 2 10 -3 0 -5 -9 -12 -19 -15 -18 -4 -21
-25 -12 -65 1 -1 10 2 20 8 16 8 22 6 30 -7 8 -14 11 -15 11 -3 1 10 4 9 10
-5 8 -19 9 -19 9 3 1 14 -5 22 -16 22 -14 0 -15 2 -4 13 10 10 15 9 25 -5 7
-10 16 -15 19 -11 4 3 7 -1 7 -10 0 -9 5 -19 11 -23 8 -5 10 1 7 19 -5 28 11
41 39 30 13 -5 15 -2 10 11 -4 10 -3 15 3 11 6 -3 10 -15 10 -26 0 -16 -3 -18
-19 -9 -14 7 -22 7 -27 -2 -4 -7 -3 -8 4 -4 11 7 17 -7 12 -29 -1 -5 8 -1 19
9 12 11 21 25 21 32 0 8 6 11 15 8 8 -4 15 -1 15 5 0 6 -8 11 -18 11 -10 0
-22 3 -26 8 -10 9 -30 10 -37 0 -3 -4 -14 -1 -25 8 -10 8 -14 13 -7 10 6 -4
14 -2 18 3 3 6 13 7 22 4 11 -5 14 -3 8 6 -5 9 -2 12 11 9 11 -2 18 -11 16
-18 -2 -10 3 -9 17 4 12 11 21 20 21 21 0 1 -21 1 -47 1 -27 -1 -48 4 -50 11
-3 7 3 9 16 6 20 -5 30 10 14 20 -5 2 -2 2 5 1 6 -2 12 2 12 8 0 9 3 9 12 0
10 -10 10 -15 -2 -23 -11 -7 -1 -9 34 -6 48 3 69 18 47 32 -7 4 -9 -1 -5 -12
5 -17 5 -17 -6 0 -6 9 -8 22 -4 28 5 8 10 6 16 -5 5 -9 13 -14 19 -11 5 4 3
12 -5 21 -8 8 -13 23 -11 34 2 11 0 18 -6 15 -5 -4 -12 0 -15 9 -3 8 -14 13
-25 11 -10 -2 -19 2 -19 8 0 8 -3 7 -9 -2 -10 -15 -33 -6 -29 12 2 7 -2 13 -7
15 -6 1 -10 -4 -10 -10 0 -7 -8 -17 -19 -23 -10 -5 -17 -14 -15 -20 5 -12 38
-14 46 -2 3 6 1 7 -5 3 -7 -4 -12 -3 -12 3 0 21 19 21 31 0 8 -17 8 -23 -1
-29 -9 -6 -7 -9 6 -12 15 -3 10 -8 -20 -23 -22 -11 -43 -30 -47 -42 -5 -13 -5
-22 -1 -20 7 2 12 -6 12 -18 0 -3 -9 -1 -20 5 -18 10 -19 9 -10 -15 16 -41 12
-50 -10 -22 -23 29 -26 67 -6 67 8 0 18 5 22 12 5 8 2 9 -11 5 -16 -7 -16 -5
-4 15 16 25 11 98 -6 99 -5 0 -9 7 -7 15 2 8 -1 14 -5 15 -4 0 -17 2 -29 3
-11 1 -26 -4 -33 -11 -10 -11 -7 -13 19 -8 28 5 30 3 26 -19 -4 -20 -1 -24 15
-21 17 4 20 -1 17 -27 -2 -17 -9 -33 -16 -36 -9 -3 -10 2 -3 20 8 21 6 23 -26
24 -35 1 -57 19 -46 39 4 5 3 7 -2 3 -4 -4 -13 -4 -20 2 -7 6 -20 4 -37 -4
-26 -14 -26 -13 -23 15 5 35 2 36 -15 4z"/>
<path d="M3138 3468 c-2 -5 -13 -10 -24 -10 -18 -2 -53 -28 -46 -35 8 -10 0
-33 -9 -27 -8 5 -10 -1 -6 -18 6 -24 4 -25 -41 -27 -61 -2 -72 -4 -99 -19 -15
-8 -23 -9 -23 -2 0 5 6 10 13 10 7 0 8 3 2 8 -6 4 -16 18 -23 32 -7 14 -10 17
-8 8 5 -18 -3 -22 -34 -19 -13 2 -13 1 0 -8 13 -10 13 -11 0 -11 -13 0 -13 -2
0 -9 17 -12 33 -4 24 11 -4 6 -1 9 5 7 20 -7 15 -23 -10 -36 -17 -9 -27 -9
-36 -1 -9 7 -13 7 -13 -1 0 -7 -5 -9 -11 -6 -6 4 -8 13 -5 21 4 11 2 12 -14 1
-25 -15 -25 -27 0 -34 11 -3 20 -10 20 -15 0 -5 -4 -7 -8 -4 -5 3 -7 -16 -6
-42 2 -25 -2 -53 -7 -62 -7 -11 -8 -5 -6 20 2 23 -3 44 -16 62 -11 15 -17 34
-14 42 5 11 0 16 -13 16 -13 0 -20 7 -20 19 0 15 -6 18 -36 14 -23 -2 -33 0
-29 7 10 16 -1 12 -16 -7 -12 -15 -12 -16 1 -9 13 8 13 7 0 -7 -19 -19 -66
-34 -56 -18 4 6 0 11 -9 11 -10 0 -14 -5 -10 -12 4 -7 -1 -4 -9 6 -9 11 -16
15 -16 9 0 -6 -11 -10 -24 -10 -22 0 -23 2 -14 23 8 18 14 21 24 13 13 -10 26
2 30 29 3 17 -6 15 -23 -5 -14 -17 -14 -17 -9 2 6 20 6 20 -9 1 -14 -18 -20
-15 -16 7 1 5 -3 6 -9 2 -8 -5 -8 -11 0 -20 17 -20 -4 -55 -30 -50 -11 2 -20
-2 -20 -8 0 -7 -4 -6 -11 3 -9 13 -10 13 -6 0 2 -8 0 -23 -5 -32 -6 -12 -5
-18 3 -18 6 0 9 -6 6 -14 -7 -17 20 -30 29 -14 5 7 2 8 -7 3 -8 -5 -11 -5 -7
0 4 4 3 16 -3 27 -8 15 -7 22 8 33 11 9 20 10 24 3 4 -7 13 -7 26 1 15 8 25 7
39 -5 18 -14 17 -15 -9 -11 -16 3 -34 -2 -43 -10 -8 -9 -14 -10 -14 -3 0 6 -5
8 -10 5 -7 -4 -7 -12 0 -25 17 -32 12 -60 -10 -60 -14 0 -25 12 -36 40 -9 22
-20 40 -25 40 -4 0 -13 8 -18 18 -7 14 -6 19 4 19 8 0 12 -4 9 -8 -2 -4 0 -10
5 -13 10 -7 23 19 14 28 -11 11 -61 6 -66 -6 -4 -10 -6 -10 -6 0 -1 6 -6 12
-12 12 -5 0 -7 -4 -4 -10 4 -6 -1 -7 -11 -3 -13 5 -16 3 -11 -9 4 -12 -2 -18
-20 -23 -32 -8 -40 0 -19 20 12 12 16 13 16 3 0 -7 6 -4 12 7 13 24 29 35 39
29 4 -2 2 7 -4 20 -8 17 -15 22 -22 15 -6 -6 -5 -13 5 -19 13 -9 13 -10 0 -11
-8 -1 -19 0 -25 1 -5 1 -7 -2 -3 -6 5 -4 -2 -12 -15 -19 -15 -8 -24 -8 -29 -1
-5 7 -8 7 -8 -1 0 -7 -4 -13 -10 -13 -5 0 -10 8 -10 18 0 14 7 18 30 16 16 -1
28 2 25 6 -3 5 1 10 7 13 7 3 3 4 -9 4 -12 -1 -19 -5 -17 -9 3 -4 -2 -8 -11
-8 -10 0 -13 5 -9 13 6 9 4 9 -7 1 -12 -9 -24 -12 -76 -16 -7 -1 -10 -4 -8 -8
2 -3 -1 -12 -6 -20 -8 -13 -10 -13 -19 0 -8 13 -10 13 -10 1 0 -11 -4 -9 -14
4 -8 11 -12 24 -9 29 4 5 1 6 -5 2 -9 -5 -9 -13 -2 -27 10 -17 8 -19 -14 -15
-14 3 -30 7 -35 10 -13 9 -24 -11 -25 -48 -2 -25 -6 -30 -21 -28 -19 2 -19 2
-3 -11 10 -8 14 -17 10 -21 -7 -8 -8 -13 -11 -42 0 -8 -6 -12 -11 -9 -8 5 -8
11 0 20 7 9 6 16 -4 24 -8 7 -12 19 -10 26 4 9 -1 13 -15 12 -11 0 -18 -3 -16
-6 3 -2 0 -10 -6 -17 -7 -8 -6 -14 2 -20 7 -4 9 -3 5 4 -12 20 11 22 29 2 16
-18 16 -20 1 -26 -9 -3 -16 -10 -16 -16 0 -5 4 -7 9 -3 23 14 24 -81 1 -110
-9 -11 -10 -16 -10 -41 0 -9 -5 -12 -12 -8 -9 5 -9 2 1 -9 10 -13 11 -20 2
-30 -6 -8 -8 -17 -4 -20 3 -4 -1 -7 -10 -7 -22 0 -21 8 1 34 15 18 15 19 0 8
-14 -11 -18 -10 -27 7 -13 23 -10 53 7 73 6 8 9 18 5 22 -4 4 -1 11 7 16 13 8
13 10 1 10 -11 0 -9 4 5 15 14 11 15 14 4 15 -13 0 -13 1 0 11 13 9 13 10 0 6
-8 -2 -15 -9 -15 -14 0 -25 -15 -24 -24 1 -6 14 -13 26 -16 26 -2 0 0 -11 5
-24 5 -13 6 -27 2 -32 -4 -4 -2 -4 4 -1 6 3 11 1 11 -6 0 -7 2 -17 4 -22 2 -6
0 -10 -6 -10 -5 0 -9 4 -7 9 1 4 -2 14 -8 21 -18 21 -22 66 -8 83 11 13 11 14
0 8 -9 -5 -15 -2 -18 11 -6 22 -53 25 -77 5 -13 -11 -17 -10 -25 4 -8 15 -9
15 -15 0 -4 -10 -3 -15 3 -11 6 3 10 1 10 -4 0 -6 -7 -11 -15 -11 -19 0 -20
46 -1 53 8 3 17 3 21 -1 13 -13 55 -9 55 6 0 10 -4 12 -12 5 -15 -11 -28 -11
-46 1 -11 6 -11 11 0 24 12 15 11 16 -4 3 -10 -7 -15 -17 -12 -22 3 -5 -1 -9
-8 -9 -7 0 -19 9 -25 19 -7 11 -29 22 -52 26 -23 4 -41 11 -41 16 0 6 5 7 12
3 7 -4 8 -3 4 4 -5 9 -13 9 -28 1 -17 -9 -18 -13 -7 -20 8 -5 9 -9 3 -9 -6 0
-17 7 -24 15 -7 8 -22 15 -34 15 -18 0 -19 2 -6 11 13 9 13 10 -2 6 -23 -8
-43 17 -25 32 8 6 17 8 21 4 4 -4 4 0 1 9 -6 14 -9 13 -28 -6 -12 -11 -19 -23
-14 -24 4 -2 4 -9 1 -14 -4 -6 -2 -8 4 -4 6 3 17 -2 24 -12 7 -9 21 -17 31
-17 9 0 17 -3 17 -7 0 -5 -3 -8 -6 -7 -4 0 -10 -5 -15 -12 -5 -8 -12 -10 -21
-3 -8 5 -5 1 5 -8 19 -18 19 -18 -2 -18 -15 0 -20 -4 -15 -12 5 -9 3 -9 -9 1
-9 7 -14 18 -10 25 3 6 2 7 -3 3 -5 -5 -9 -18 -9 -30 -1 -12 -6 -21 -13 -19
-7 1 -11 -1 -11 -5 3 -20 -2 -36 -8 -29 -11 11 -10 50 0 57 5 4 -3 7 -17 7
-14 0 -26 -5 -26 -10 0 -5 5 -6 10 -3 5 3 10 0 10 -8 0 -21 -12 -28 -26 -16
-9 8 -11 5 -7 -11 4 -15 9 -18 18 -10 15 12 30 -3 20 -19 -3 -5 0 -13 6 -16 7
-5 2 -16 -13 -33 -13 -15 -15 -21 -6 -13 15 11 16 10 5 -18 -6 -16 -15 -27
-20 -24 -5 3 -4 -4 2 -16 16 -28 5 -46 -17 -29 -15 12 -16 11 -3 -4 7 -10 17
-15 22 -12 5 3 8 -8 7 -25 -2 -33 -12 -40 -22 -16 -3 8 -11 14 -17 13 -6 -2
-14 3 -17 11 -3 9 0 11 8 6 7 -4 2 6 -10 23 -16 22 -27 29 -35 22 -7 -5 -16
-6 -20 -2 -5 4 -5 1 -1 -6 5 -7 10 -11 13 -8 3 3 14 1 25 -5 19 -10 19 -12 3
-29 -10 -11 -22 -18 -27 -17 -10 2 -13 -11 -21 -73 -2 -16 -9 -25 -20 -24 -15
2 -15 0 1 -22 9 -13 21 -24 25 -24 5 0 5 -5 2 -11 -4 -6 -17 3 -31 22 -19 26
-21 35 -11 48 9 12 9 13 0 7 -8 -4 -13 -2 -13 8 0 8 -5 16 -10 18 -6 2 -12 13
-15 26 -2 12 -7 27 -11 34 -5 7 -2 9 7 4 8 -4 5 -1 -5 8 -16 13 -17 18 -6 31
11 13 10 14 -5 8 -15 -5 -17 -3 -12 11 4 10 3 15 -3 11 -13 -8 -12 -4 1 50 7
28 16 42 23 38 6 -3 6 0 -1 7 -11 12 -15 11 -26 -3 -11 -16 -12 -14 -13 12 -2
29 12 37 29 16 4 -6 7 -2 5 9 -2 10 2 21 8 23 13 4 27 -67 18 -91 -4 -11 -1
-16 10 -16 9 0 21 -10 26 -22 5 -13 9 -17 9 -11 1 7 15 20 33 29 34 17 77 54
64 54 -5 0 -4 6 2 13 5 6 9 26 7 43 -1 22 4 36 16 45 11 7 19 18 19 23 0 5 -8
1 -19 -8 -18 -16 -19 -16 -23 9 -6 27 6 43 17 25 7 -12 25 -4 25 11 0 5 -11 7
-24 5 -29 -5 -40 3 -25 20 7 8 6 14 -2 20 -8 4 -9 3 -5 -4 4 -7 2 -12 -3 -12
-6 0 -11 5 -11 10 0 6 0 13 0 18 0 10 23 10 37 0 6 -5 14 -5 18 2 5 8 -7 12
-31 9 -4 0 -11 5 -15 13 -5 7 -9 8 -9 2 0 -6 -10 -10 -22 -10 -13 1 -31 -4
-40 -12 -10 -9 -18 -12 -18 -9 0 4 -21 -5 -46 -19 -26 -14 -43 -21 -39 -14 5
8 0 7 -14 -2 -12 -7 -21 -17 -21 -23 0 -5 -4 -4 -9 4 -12 19 -41 23 -41 5 0
-8 8 -14 18 -14 16 -1 16 -1 0 -11 -10 -5 -18 -17 -18 -24 0 -8 -7 -15 -15
-15 -8 0 -15 -7 -15 -15 0 -12 -7 -14 -27 -9 -27 6 -27 6 -9 -9 18 -13 18 -16
4 -30 -9 -9 -18 -14 -21 -11 -2 3 -7 -2 -10 -10 -4 -10 0 -14 14 -11 20 4 27
-19 9 -30 -5 -3 -10 -1 -10 4 0 6 -4 11 -10 11 -5 0 -7 -7 -3 -16 3 -10 13
-14 25 -10 11 2 17 2 14 -1 -3 -3 -1 -14 5 -24 8 -17 6 -19 -23 -20 -28 -1
-29 -2 -10 -7 22 -7 22 -7 -8 -20 -33 -15 -40 -38 -12 -45 13 -4 11 -5 -5 -6
-23 -1 -27 7 -24 42 1 9 -3 17 -8 17 -6 0 -11 6 -11 14 0 10 -7 12 -22 8 -21
-5 -22 -4 -9 11 9 11 10 17 2 17 -6 0 -11 -4 -11 -10 0 -5 -8 -7 -17 -3 -13 4
-11 0 5 -15 13 -12 22 -27 19 -34 -4 -10 -6 -10 -6 0 -1 6 -11 12 -23 12 -19
0 -20 2 -8 10 9 6 10 10 3 10 -6 0 -15 -5 -19 -12 -5 -7 -10 -4 -16 11 -7 19
-11 21 -23 11 -8 -7 -12 -16 -9 -21 3 -5 -1 -9 -8 -10 -7 0 -4 -4 7 -9 l20 -9
-20 0 c-17 -1 -17 -3 -5 -11 8 -5 11 -10 5 -10 -5 0 -3 -5 5 -10 13 -9 13 -10
0 -10 -13 0 -13 -1 0 -10 11 -8 6 -9 -17 -5 -19 3 -33 1 -33 -5 0 -5 -4 -10
-10 -10 -5 0 -10 6 -10 14 0 8 -6 17 -12 19 -7 3 6 4 28 3 40 -1 41 -1 28 20
-8 11 -11 24 -7 27 3 4 0 7 -8 8 -8 0 -6 4 6 9 18 8 18 9 2 9 -10 1 -16 5 -13
10 3 5 15 7 26 4 11 -3 20 0 20 6 0 6 -7 11 -15 11 -8 0 -15 5 -15 10 0 6 -6
5 -14 -2 -8 -7 -14 -15 -14 -18 2 -34 -3 -42 -17 -30 -9 7 -18 10 -22 6 -3 -3
0 -6 8 -7 8 -1 3 -5 -11 -10 l-25 -8 25 2 c14 1 31 -5 38 -13 10 -11 11 -11 6
-1 -5 9 -3 12 4 7 25 -15 11 -29 -24 -23 -28 5 -35 3 -30 -8 8 -23 -17 -35
-39 -19 -19 15 -19 15 8 8 27 -6 28 -6 15 15 -7 11 -17 21 -23 21 -5 0 -3 5 5
10 12 8 10 10 -8 10 -18 0 -22 -4 -17 -19 3 -11 1 -22 -5 -26 -6 -3 -7 -12 -4
-18 5 -9 3 -9 -6 0 -11 10 -11 15 0 28 15 18 0 20 -19 3 -11 -10 -13 -10 -7 0
9 15 1 15 -25 2 -25 -14 -24 -25 1 -27 21 -2 56 -30 47 -39 -2 -3 -12 2 -21
11 -14 15 -16 15 -16 1 0 -9 5 -16 12 -16 9 0 9 -3 0 -12 -7 -7 -12 -17 -12
-22 0 -6 5 -5 12 2 15 15 28 15 28 0 0 -6 -3 -8 -7 -5 -3 4 -13 2 -20 -5 -18
-15 -37 10 -22 28 7 8 6 14 -1 19 -6 3 -8 10 -5 15 8 12 -38 21 -50 9 -7 -7
-5 -10 7 -7 9 1 16 -1 16 -7 -1 -5 -9 -9 -20 -7 -10 2 -18 -1 -18 -7 0 -6 8
-8 18 -5 13 5 14 4 3 -4 -9 -7 -10 -12 -2 -16 6 -4 11 -2 11 4 0 6 4 9 10 5 5
-3 6 -13 3 -22 -4 -11 -3 -14 5 -9 7 4 10 2 7 -6 -8 -21 -42 -38 -60 -31 -13
5 -14 7 -3 14 10 7 10 9 1 9 -7 0 -13 5 -13 10 0 7 6 7 20 0 11 -6 20 -7 20
-2 0 13 -39 22 -45 11 -3 -4 -13 -5 -23 -2 -13 4 -13 3 3 -10 17 -13 18 -17 5
-32 -14 -16 -13 -17 8 -11 13 5 22 3 22 -3 0 -6 -9 -11 -21 -11 -11 0 -17 -5
-14 -10 4 -6 3 -10 -2 -9 -20 3 -33 -2 -31 -13 2 -7 -3 -12 -10 -10 -6 1 -12
-7 -12 -17 0 -11 -12 -42 -26 -68 -38 -70 -32 -147 19 -229 20 -33 47 -72 59
-85 55 -57 55 -60 10 -58 -41 3 -74 -13 -57 -28 4 -5 10 -2 12 5 4 9 8 10 18
2 9 -8 15 -8 20 0 3 5 14 10 23 10 15 0 15 -2 2 -11 -12 -8 -9 -10 13 -6 22 4
28 0 33 -20 5 -17 1 -30 -11 -41 -17 -16 -17 -16 -12 0 3 9 0 19 -8 22 -15 5
-10 -18 8 -41 6 -9 6 -13 -2 -13 -7 0 -11 -6 -10 -12 4 -19 -41 -88 -57 -88
-7 0 -18 -10 -24 -22 -10 -21 -10 -21 3 -6 8 10 17 15 20 11 4 -3 -1 -13 -11
-22 -10 -9 -20 -34 -22 -56 -10 -87 -2 -294 10 -293 20 1 30 -4 25 -12 -4 -6
-10 -8 -15 -5 -4 3 -11 -2 -14 -11 -9 -24 -7 -36 4 -29 6 4 8 10 5 15 -3 4 2
10 10 14 19 7 69 -41 73 -71 3 -18 -2 -22 -25 -21 -42 1 -77 -12 -65 -24 6 -6
8 -17 5 -26 -4 -9 -2 -13 3 -9 14 8 38 -9 30 -22 -4 -6 -11 -9 -16 -6 -5 3
-11 1 -14 -4 -7 -11 13 -9 33 3 11 7 13 5 8 -7 -3 -9 -2 -19 4 -22 5 -4 8 -1
7 7 -2 7 4 12 12 10 10 -2 7 4 -8 18 -12 11 -22 25 -22 31 0 6 -4 8 -9 5 -5
-3 -11 1 -15 9 -6 16 9 29 24 20 6 -3 10 -2 10 3 0 5 11 7 25 4 14 -2 25 -9
25 -14 0 -6 6 -5 15 2 8 7 12 17 8 24 -4 6 6 0 23 -14 16 -14 47 -34 67 -45
41 -22 46 -31 20 -38 -16 -4 -16 -5 -1 -6 9 0 20 4 23 9 3 6 11 10 16 10 6 0
8 -4 5 -9 -9 -15 120 -32 223 -30 78 1 103 6 140 25 24 13 51 24 60 24 13 0
13 2 2 9 -11 7 -10 11 6 19 15 8 23 8 33 -1 10 -10 12 -9 7 4 -9 26 129 119
148 101 4 -4 5 0 3 8 -2 10 5 15 22 14 14 -1 28 4 32 10 5 7 8 6 8 -4 0 -8 6
-4 13 10 10 20 21 25 52 27 22 1 35 0 29 -3 -6 -2 -9 -15 -7 -28 4 -17 10 -22
24 -19 10 3 19 0 19 -6 0 -6 6 -10 13 -9 6 2 10 -4 9 -12 -2 -8 -1 -12 3 -8 4
4 19 2 34 -3 21 -8 24 -8 14 2 -7 7 -13 20 -13 28 0 13 2 13 9 2 6 -9 9 -5 9
14 -1 15 -3 23 -7 17 -3 -5 -14 -8 -23 -6 -10 1 -18 -4 -18 -12 0 -8 -6 -11
-15 -8 -8 4 -13 10 -10 15 3 4 -4 6 -15 4 -17 -3 -20 0 -17 23 3 22 11 28 43
35 21 4 49 6 61 4 12 -2 20 0 17 4 -3 5 2 9 11 9 9 0 13 -5 9 -11 -4 -7 -1
-10 7 -7 8 3 13 10 12 15 -2 10 25 15 72 15 17 0 33 6 37 12 5 6 8 1 8 -12 0
-13 -4 -20 -10 -17 -6 3 -10 1 -10 -5 0 -23 25 -3 28 22 3 24 8 26 70 33 37 4
179 9 316 10 136 2 251 6 254 9 3 3 11 1 19 -5 7 -6 13 -7 13 -2 0 5 7 10 15
10 8 0 15 -5 15 -11 0 -7 3 -7 8 -1 9 13 35 18 27 5 -8 -14 8 -13 23 2 8 8 15
8 27 -2 13 -11 15 -10 10 1 -4 10 5 14 35 15 39 2 53 -9 28 -19 -7 -3 -3 -6 9
-6 17 -1 21 3 16 16 -5 11 -3 14 6 8 8 -4 16 -2 21 5 5 8 9 7 13 -5 5 -10 3
-14 -5 -9 -6 4 -8 3 -5 -3 7 -11 46 -11 64 0 6 4 15 3 18 -3 5 -8 11 -7 21 1
11 9 14 8 14 -2 0 -8 7 -4 16 9 16 23 34 29 34 11 0 -5 -4 -8 -9 -4 -5 3 -13
0 -17 -6 -4 -8 -3 -9 4 -5 7 4 12 3 12 -1 0 -10 66 -10 76 -1 3 4 -8 5 -25 4
-17 -1 -31 3 -31 8 0 6 22 11 49 12 37 1 48 -2 44 -12 -3 -8 -10 -11 -16 -7
-6 4 -7 1 -3 -6 6 -9 12 -9 24 3 15 13 20 13 36 0 21 -15 55 -10 68 10 6 8 8
8 8 -1 0 -6 13 -11 28 -11 17 1 29 6 29 14 0 8 -3 12 -5 9 -3 -3 -11 0 -19 7
-10 8 -13 8 -10 -3 2 -8 2 -11 0 -6 -3 4 -12 7 -20 7 -28 0 -6 12 29 15 18 2
53 8 78 13 63 14 79 12 72 -7 -4 -12 0 -12 17 3 20 18 21 18 15 2 -6 -16 -4
-17 13 -7 16 8 24 7 33 -4 9 -11 9 -15 1 -15 -6 0 -11 -7 -11 -15 0 -20 10
-19 27 3 13 16 14 15 10 -5 -3 -14 0 -21 7 -20 6 1 12 -15 14 -40 2 -24 7 -43
12 -43 15 0 41 -58 30 -65 -5 -3 -9 -23 -7 -44 1 -22 6 -37 10 -34 5 3 7 21 5
39 -2 19 -1 34 2 34 10 0 50 -40 50 -50 0 -6 6 -10 13 -10 19 0 67 -24 67 -33
0 -5 4 -6 9 -3 5 4 22 1 38 -6 33 -14 313 -20 313 -6 0 5 4 7 9 4 5 -4 12 0
14 6 3 8 6 6 6 -4 1 -22 31 -24 31 -2 0 9 -5 12 -12 8 -7 -4 -9 -3 -5 1 15 17
36 13 32 -6 -3 -12 2 -19 13 -19 12 0 13 3 5 11 -18 18 -5 37 23 31 16 -3 24
0 25 9 0 8 4 5 9 -6 13 -29 12 -41 -2 -27 -17 17 -28 15 -27 -5 0 -11 3 -13 6
-5 2 6 10 9 16 5 23 -15 37 -12 28 5 -4 10 -7 22 -4 28 2 6 -7 16 -19 22 -17
8 -19 11 -6 11 9 1 49 34 90 74 89 88 138 180 145 272 4 54 2 64 -25 105 -17
24 -28 49 -25 55 4 5 2 7 -2 2 -9 -7 -55 30 -55 45 0 13 17 9 33 -6 13 -13 15
-12 15 10 0 13 -4 27 -9 30 -5 3 -6 -3 -2 -13 6 -15 4 -16 -9 -5 -11 9 -18 10
-23 2 -3 -6 -11 -7 -17 -4 -7 4 -8 2 -4 -4 4 -7 5 -12 2 -12 -3 0 -17 20 -31
45 -28 46 -26 68 3 59 14 -5 14 -4 3 4 -8 6 -19 8 -26 6 -6 -3 -12 2 -12 10 0
8 4 13 9 10 4 -3 8 -1 8 3 0 5 9 9 20 10 11 1 18 -2 15 -7 -3 -4 2 -10 10 -14
8 -3 17 0 21 6 4 7 3 8 -4 4 -7 -4 -12 -1 -12 9 0 13 -7 15 -35 11 -20 -4 -35
-2 -35 4 0 6 4 10 10 10 5 0 7 6 4 13 -2 7 2 21 11 32 15 20 15 20 34 -5 16
-20 22 -23 32 -12 11 10 11 12 0 12 -7 0 -9 5 -5 12 4 7 3 8 -5 4 -14 -9 -41
11 -41 31 0 10 6 12 20 8 12 -4 20 -2 20 5 0 6 -5 8 -11 4 -7 -4 -10 -3 -7 2
2 5 10 24 17 42 7 17 16 32 20 32 4 0 5 15 3 34 -3 26 1 37 18 49 12 8 17 18
12 21 -6 3 -13 0 -16 -6 -4 -7 -4 4 -2 25 3 22 1 35 -5 32 -5 -4 -9 22 -8 62
0 47 3 62 9 48 9 -22 10 -21 14 11 2 16 -2 20 -17 16 -14 -4 -18 0 -16 14 1
10 -3 33 -10 49 -6 17 -16 42 -22 57 -6 15 -9 34 -6 41 3 8 -1 14 -9 14 -7 0
-10 -5 -6 -11 3 -6 -8 0 -25 14 -30 23 -57 72 -47 83 3 2 -2 7 -11 11 -13 5
-14 2 -4 -15 7 -14 7 -25 1 -31 -6 -6 -13 1 -20 20 -6 17 -7 33 -4 37 4 3 -1
3 -11 -1 -23 -8 -22 14 2 45 12 16 21 20 25 12 4 -6 2 -11 -4 -11 -8 0 -8 -6
0 -20 6 -10 17 -17 24 -14 8 3 16 -2 19 -13 4 -15 5 -14 6 4 0 12 -6 29 -15
37 -8 9 -13 22 -11 29 4 9 6 9 6 0 1 -7 8 -13 16 -13 8 0 12 6 9 14 -4 9 -15
13 -31 10 -18 -3 -23 -1 -17 8 6 10 4 10 -8 0 -14 -11 -20 -10 -36 6 -11 11
-17 23 -14 27 4 3 1 9 -5 13 -8 5 -8 17 1 42 9 27 16 34 34 33 13 -2 22 3 22
11 0 9 -7 12 -18 9 -13 -3 -19 1 -19 12 0 9 6 14 12 11 7 -2 17 -1 24 3 7 4
-4 8 -25 9 -29 1 -34 -1 -25 -12 9 -10 8 -15 -4 -20 -8 -3 -15 -13 -15 -21 0
-10 -5 -13 -12 -9 -10 6 -10 4 0 -7 16 -17 15 -26 -3 -26 -8 0 -15 5 -15 11 0
6 -4 4 -10 -4 -5 -8 -13 -11 -17 -6 -4 4 0 14 10 21 12 8 14 15 8 20 -6 3 -11
0 -11 -7 0 -9 -3 -9 -10 2 -7 11 -9 7 -6 -16 1 -17 -2 -37 -8 -45 -13 -17 -46
-21 -46 -5 0 6 -5 4 -11 -4 -9 -12 -10 -11 -6 8 3 12 1 22 -4 22 -9 0 -13 -15
-10 -33 1 -5 -4 -7 -11 -4 -7 2 -12 11 -10 18 1 9 -3 8 -11 -3 -15 -19 -33
-25 -22 -8 3 6 2 10 -3 10 -6 0 -12 -6 -15 -14 -4 -11 1 -13 24 -11 35 5 38
-2 7 -14 -13 -5 -31 -5 -40 1 -11 5 -18 5 -18 -1 0 -14 31 -19 58 -9 13 4 22
4 22 -3 0 -6 5 -7 11 -3 8 4 7 9 -2 15 -8 5 -9 9 -4 10 6 0 18 2 27 4 10 2 20
-1 24 -6 3 -5 -3 -9 -13 -10 -10 0 -13 -3 -6 -6 7 -2 22 2 34 10 22 16 53 12
43 -4 -3 -5 0 -9 6 -9 7 0 10 7 7 14 -4 10 -1 13 10 9 8 -3 19 0 24 8 7 11 9
11 9 -3 0 -9 -8 -19 -17 -21 -17 -4 -16 -5 0 -6 22 -1 19 -36 -3 -36 -8 0 -14
5 -13 12 3 16 -30 9 -35 -8 -3 -11 -1 -11 7 1 8 12 12 10 19 -10 6 -17 5 -28
-4 -37 -14 -15 -28 -17 -20 -4 3 5 -1 12 -10 15 -9 4 -13 2 -8 -5 4 -7 1 -10
-7 -7 -8 3 -13 11 -11 18 3 11 0 11 -13 0 -8 -7 -19 -10 -22 -6 -4 4 -1 11 7
16 12 8 12 10 1 10 -8 0 -11 6 -7 18 5 15 4 14 -9 -2 -8 -10 -12 -23 -9 -27 3
-5 -27 -10 -65 -10 -103 -2 -105 -2 -119 -16 -7 -7 -19 -13 -26 -13 -17 0 -38
25 -29 34 4 4 8 19 9 34 2 39 3 42 14 42 6 0 9 -3 9 -7 -1 -5 -1 -15 0 -23 1
-13 2 -13 11 0 9 15 11 13 14 -12 2 -16 26 -22 26 -6 0 7 -9 19 -20 26 -11 7
-20 19 -20 28 0 10 -6 14 -15 10 -8 -3 -15 -1 -15 4 0 6 -5 10 -10 10 -6 0 -8
-10 -4 -24 5 -21 3 -24 -14 -19 -21 5 -39 33 -23 33 5 0 11 -6 14 -12 2 -7 7
-10 11 -7 4 4 0 14 -9 22 -17 18 -20 43 -5 52 6 3 10 12 10 18 0 8 -3 9 -8 1
-9 -13 -73 -13 -65 0 4 5 1 6 -5 2 -22 -13 -12 -26 18 -26 25 0 30 -4 30 -24
0 -14 -4 -28 -10 -31 -5 -3 -10 -2 -10 3 0 5 -7 9 -15 9 -8 0 -12 -4 -9 -8 2
-4 -2 -10 -8 -13 -7 -3 -4 -5 7 -3 11 1 21 -2 23 -8 1 -5 -18 -8 -43 -8 -69 2
-67 1 -55 23 8 14 18 19 35 16 19 -4 22 -1 18 12 -5 11 -8 12 -11 4 -3 -10 -7
-10 -18 -1 -20 17 -17 29 7 29 12 0 19 5 16 13 -2 6 -10 12 -18 11 -8 -1 -15
9 -15 23 -2 19 2 22 16 18 10 -3 21 -1 25 5 4 6 3 10 -2 9 -21 -4 -43 2 -43
11 0 5 8 7 18 3 15 -5 14 -4 -2 9 -11 9 -16 20 -11 27 4 8 -2 21 -14 32 -19
18 -34 20 -131 18 -60 -1 -110 -5 -112 -11z m-43 -237 c6 -1 3 -6 -5 -11 -13
-8 -13 -10 2 -10 11 0 15 -6 11 -19 -4 -14 4 -23 31 -36 22 -10 39 -27 42 -41
3 -13 11 -22 18 -21 6 1 10 -4 9 -10 -2 -7 4 -13 12 -13 15 0 27 -18 45 -66 9
-23 8 -25 -4 -15 -11 9 -14 9 -12 -1 0 -7 -3 -13 -9 -13 -5 0 -9 4 -7 8 1 5
-2 6 -7 2 -6 -3 -7 -13 -4 -22 5 -13 2 -12 -16 4 -20 18 -22 28 -17 66 l6 45
-60 4 c-69 4 -89 0 -69 -13 11 -8 11 -12 -4 -24 -11 -7 -26 -11 -35 -7 -16 5
-16 4 0 -11 18 -19 33 -23 23 -7 -3 6 -1 10 4 10 6 0 11 -3 11 -7 0 -5 3 -18
6 -29 4 -14 0 -23 -11 -28 -13 -5 -16 -2 -13 12 3 11 0 19 -7 19 -10 0 -11 -7
-5 -23 6 -15 5 -24 -3 -28 -9 -3 -9 -5 0 -5 6 -1 15 4 18 9 3 6 11 10 17 10 6
0 9 -3 5 -6 -8 -8 16 -33 26 -27 4 2 7 0 7 -6 0 -5 14 -25 30 -43 27 -29 32
-31 51 -20 12 8 23 11 26 8 7 -6 59 19 92 45 13 10 28 16 34 12 5 -3 7 -1 3 5
-10 16 15 27 26 11 6 -10 7 -4 4 19 -2 17 -1 32 4 32 4 0 2 17 -5 37 -13 37
-11 58 4 49 12 -8 6 31 -7 46 -9 11 -9 17 0 26 20 20 26 14 26 -29 1 -23 3
-44 6 -47 3 -3 6 16 6 41 0 34 4 47 14 47 8 0 18 4 21 10 3 5 0 7 -8 4 -8 -3
-20 2 -27 10 -10 13 -9 17 4 22 9 3 24 0 33 -7 12 -10 15 -10 9 -1 -9 15 8 16
35 2 11 -6 18 -7 17 -3 -3 9 5 13 26 13 16 0 28 -48 14 -56 -4 -3 -6 -10 -3
-15 4 -5 2 -9 -4 -9 -5 0 -8 -9 -6 -20 5 -24 -34 -45 -48 -26 -5 7 -7 6 -6 -4
3 -30 -1 -40 -17 -40 -8 0 -12 -4 -9 -10 3 -5 3 -10 -2 -10 -4 0 -15 -14 -22
-32 -8 -18 -16 -27 -19 -20 -2 7 -8 9 -13 6 -6 -4 -6 -10 0 -18 7 -8 1 -17
-20 -31 -16 -11 -29 -26 -29 -32 0 -7 -5 -13 -11 -13 -6 0 -20 -11 -31 -26
-11 -14 -23 -23 -25 -20 -3 3 -22 -10 -41 -29 -30 -27 -39 -32 -51 -22 -12 9
-13 9 -7 0 5 -9 1 -13 -11 -13 -10 -1 -53 -3 -96 -6 -72 -6 -77 -5 -71 12 3
11 -1 8 -10 -6 -10 -16 -15 -19 -16 -10 0 10 -3 11 -8 4 -9 -15 -63 -15 -81 0
-12 8 -13 8 -7 -1 5 -9 0 -13 -16 -14 -13 -1 -33 -3 -45 -4 -15 -1 -23 3 -23
13 0 14 -1 14 -12 0 -14 -18 -85 -27 -107 -13 -10 5 -12 4 -7 -4 5 -8 -2 -11
-21 -11 -74 -1 -149 -6 -158 -11 -5 -3 -30 -7 -53 -8 -34 -1 -42 1 -36 11 6
10 5 10 -7 2 -8 -7 -39 -12 -69 -13 -30 0 -68 -2 -85 -4 -16 -2 -33 1 -37 7
-5 7 -8 7 -8 -1 0 -7 -7 -13 -16 -13 -9 0 -12 5 -8 12 5 7 3 8 -6 3 -7 -4 -39
-8 -71 -9 -32 -1 -62 -5 -65 -9 -4 -4 -14 -1 -22 6 -13 10 -14 9 -8 -1 6 -10
1 -12 -21 -8 -15 2 -32 5 -36 5 -5 1 -5 6 -1 13 4 6 3 8 -3 5 -12 -8 -36 17
-26 26 3 4 13 1 22 -6 14 -11 14 -10 2 6 -17 21 -14 21 -37 -5 -10 -12 -14
-18 -8 -15 7 4 17 0 23 -7 7 -8 8 -16 4 -18 -17 -9 -73 -9 -73 0 0 17 13 22
29 10 13 -10 14 -10 4 2 -7 8 -9 18 -4 24 5 6 5 20 0 31 -4 11 -8 14 -8 8 -1
-7 -10 -22 -21 -33 -11 -11 -17 -25 -15 -33 4 -8 -3 -13 -15 -14 -11 -1 -20 4
-20 10 0 7 -4 6 -10 -3 -8 -13 -10 -12 -10 3 0 9 4 17 9 17 4 0 6 12 3 27 -4
22 -2 25 16 21 16 -4 19 -2 15 10 -5 11 -3 13 8 7 12 -8 12 -6 0 8 -16 20 -22
22 -18 6 1 -6 -3 -14 -10 -16 -9 -3 -12 14 -12 64 1 63 2 66 15 43 7 -14 13
-32 14 -41 0 -19 34 -52 57 -55 9 -2 19 -8 23 -14 5 -8 9 -6 14 6 6 16 10 15
30 -11 13 -17 23 -37 21 -46 -2 -8 3 -16 11 -16 10 0 11 4 3 14 -6 7 -8 13 -3
13 4 0 3 5 -3 11 -6 6 -9 19 -6 28 4 13 3 13 -5 2 -16 -22 -26 24 -11 51 7 13
14 34 15 48 1 14 7 36 12 50 7 19 9 11 8 -38 0 -44 -4 -61 -12 -58 -13 5 -29
-23 -19 -32 3 -3 5 0 5 6 0 7 6 12 13 12 8 0 13 -14 14 -35 1 -48 10 -68 28
-61 8 3 15 1 15 -5 0 -6 7 -6 20 1 11 6 20 8 20 6 0 -3 10 5 23 17 21 21 31
67 14 67 -15 0 2 101 20 118 10 9 14 14 9 10 -20 -16 -26 -7 -26 41 0 33 5 51
14 54 20 8 34 -52 15 -64 -11 -7 -10 -9 3 -9 12 0 17 -7 16 -22 0 -13 2 -45 6
-73 3 -27 3 -45 -1 -38 -12 17 -41 -7 -37 -30 4 -28 14 -34 14 -9 0 13 6 22
16 22 8 0 13 -4 9 -9 -3 -5 0 -13 6 -17 8 -4 9 -3 5 4 -5 8 0 12 14 12 18 0
19 -3 10 -20 -6 -11 -15 -18 -19 -15 -10 5 -24 -25 -16 -33 3 -3 5 -1 5 5 0 6
7 14 16 17 11 4 15 2 11 -8 -6 -15 17 -16 30 -1 4 4 2 5 -5 1 -10 -6 -13 -1
-10 20 2 16 5 27 8 25 3 -2 15 1 28 8 15 8 22 21 22 39 0 16 9 38 20 50 21 22
15 31 -8 12 -6 -6 -10 -7 -8 -4 3 3 1 17 -4 30 -6 15 -5 26 2 30 6 4 8 3 5 -2
-3 -6 -2 -16 4 -24 7 -13 9 -13 10 0 1 8 1 18 0 23 0 4 3 7 9 7 5 0 10 -9 10
-20 0 -13 6 -20 18 -19 10 0 12 3 5 6 -18 7 -16 33 2 33 8 0 15 -4 15 -10 0
-5 5 -10 11 -10 5 0 7 5 4 10 -3 6 -1 10 5 10 6 0 9 4 5 9 -3 5 -1 12 5 16 6
4 10 -6 10 -24 0 -23 -5 -31 -17 -32 -12 0 -13 -2 -5 -6 22 -8 42 17 39 51 -1
23 2 30 13 28 8 -2 12 0 8 4 -11 10 12 35 26 27 8 -4 8 -3 -1 7 -7 8 -8 22 -2
44 6 20 5 32 -1 34 -13 5 -13 72 -1 72 6 0 13 -4 16 -10 3 -5 1 -10 -6 -10 -8
0 -8 -4 -2 -12 8 -10 10 -102 4 -175 -1 -16 -31 -17 -31 -2 0 5 -5 7 -10 4
-16 -10 -1 -25 25 -25 14 0 25 7 28 18 4 13 5 11 6 -5 0 -13 -5 -23 -11 -23
-9 0 -10 -3 -2 -8 6 -4 14 -28 18 -54 6 -42 5 -48 -11 -48 -17 -1 -17 -1 0
-11 9 -6 15 -14 12 -20 -4 -5 -1 -9 4 -9 6 0 11 -7 11 -15 0 -8 7 -15 15 -15
8 0 15 -4 15 -9 0 -12 -33 -9 -42 4 -5 6 -8 3 -8 -7 0 -21 17 -33 23 -16 3 10
7 10 18 2 8 -7 23 -8 34 -4 11 4 28 4 37 -1 18 -10 35 5 18 16 -6 4 -7 11 -4
17 4 7 2 8 -5 4 -6 -4 -9 -11 -6 -15 2 -5 -6 -8 -19 -8 l-24 0 25 23 c14 13
29 21 34 18 5 -3 9 0 9 7 0 6 -8 9 -18 7 -11 -3 -19 0 -19 8 0 10 6 10 31 0
22 -9 30 -19 28 -32 -2 -16 -1 -17 8 -4 9 13 12 12 25 -4 8 -11 15 -15 15 -9
0 6 11 11 25 11 31 0 85 21 85 34 0 5 -4 6 -10 3 -13 -8 -13 8 1 22 8 8 7 13
-2 18 -8 5 -10 4 -5 -3 4 -7 1 -12 -8 -12 -9 0 -16 5 -16 11 0 5 -4 8 -9 4 -5
-3 -15 1 -23 8 -7 7 -21 16 -31 20 -14 5 -16 11 -7 26 8 17 6 22 -12 31 -20
10 -21 9 -6 -3 11 -8 14 -18 8 -27 -7 -11 -12 -11 -23 -2 -7 7 -18 8 -22 4 -5
-4 -5 -1 -1 6 5 8 0 12 -16 12 l-23 1 24 19 c12 11 27 17 32 15 4 -3 14 3 20
14 15 23 39 17 39 -11 0 -13 4 -17 13 -11 6 4 20 6 31 4 10 -1 15 2 12 8 -4 5
-15 8 -25 6 -11 -2 -22 3 -25 12 -7 18 12 46 25 37 5 -3 9 -2 8 3 -4 15 13 43
25 43 8 0 11 11 8 31 -3 18 -1 29 5 26 5 -3 10 -25 12 -48 2 -35 0 -40 -12
-31 -11 9 -14 8 -14 -3 0 -8 4 -15 9 -15 5 0 7 -16 5 -35 -3 -20 -1 -38 3 -40
5 -3 7 6 6 19 -2 14 0 30 4 36 4 7 7 -38 7 -98 0 -63 5 -117 12 -128 9 -16 10
-14 6 13 -4 27 -3 30 15 26 11 -3 20 -10 20 -15 0 -5 -5 -6 -12 -2 -7 4 -8 3
-4 -4 9 -16 39 -15 55 1 11 10 12 9 6 -3 -6 -12 -5 -12 5 -3 9 8 21 8 47 -3
24 -11 33 -11 27 -3 -5 9 4 11 35 6 35 -4 46 -1 66 19 13 13 19 24 12 24 -7 0
-6 4 3 10 8 5 10 10 3 10 -6 0 -10 11 -8 25 2 21 -2 25 -22 25 -16 0 -22 4
-17 12 4 6 3 8 -4 5 -13 -9 -44 2 -37 13 3 5 1 18 -3 31 -7 19 -10 20 -15 6
-4 -10 -2 -17 3 -17 6 0 10 -5 10 -11 0 -5 -5 -7 -12 -3 -7 4 -8 3 -4 -4 4 -7
1 -12 -6 -12 -9 0 -9 -3 2 -10 11 -7 8 -10 -15 -9 -16 0 -24 3 -18 6 9 3 10
10 3 24 -10 18 -6 23 13 20 4 0 7 4 7 10 0 6 -9 8 -20 4 -11 -4 -20 -2 -20 4
0 6 9 11 20 11 32 0 58 21 52 42 -3 14 2 18 24 19 l29 2 -27 4 c-20 3 -28 10
-28 24 0 11 7 19 16 19 9 0 12 5 8 13 -5 7 0 6 11 -3 11 -9 16 -10 11 -2 -4 7
-2 12 6 12 9 0 9 3 -2 10 -8 5 -11 10 -5 10 5 0 4 5 -2 11 -6 6 -9 17 -7 24 3
7 1 16 -5 19 -6 4 -8 -6 -6 -25 3 -18 -1 -37 -10 -45 -18 -19 -29 -18 -21 2 3
8 2 13 -2 10 -4 -2 -14 -1 -22 4 -9 5 -19 5 -27 -2 -21 -17 -43 -1 -43 31 0
36 43 72 63 52 15 -15 30 -14 21 2 -6 10 -4 10 7 0 15 -15 33 -17 25 -4 -8 12
13 20 44 16 14 -2 30 -4 35 -4z m-1499 -217 c-1 -72 -4 -87 -19 -96 -14 -7
-16 -13 -6 -24 9 -11 9 -14 -1 -14 -7 0 -10 -8 -8 -18 6 -23 -11 -46 -36 -50
-13 -2 -16 0 -10 10 13 20 13 37 2 45 -7 4 -9 -2 -5 -17 4 -15 2 -19 -4 -13
-10 10 -14 57 -7 88 3 11 3 14 1 8 -11 -31 -20 -8 -20 47 0 40 4 59 11 57 13
-4 15 -28 5 -42 -4 -6 -3 -17 2 -25 8 -12 9 -11 7 5 -2 13 2 19 11 17 11 -2
12 0 3 11 -17 20 -2 30 19 11 16 -14 18 -14 24 5 3 12 10 19 14 17 4 -3 8 1 8
9 0 10 -4 12 -12 5 -20 -17 -25 1 -7 26 9 13 20 24 23 24 3 0 5 -39 5 -86z
m-182 -229 c9 -19 21 -37 26 -40 6 -4 8 -11 5 -16 -4 -5 -2 -9 4 -9 6 0 8 -8
5 -17 -5 -17 -5 -17 6 0 9 14 15 15 33 5 12 -7 28 -13 35 -14 23 -4 27 -14 6
-14 -11 0 -25 5 -32 12 -9 9 -12 9 -12 0 0 -7 -13 -12 -31 -12 -17 0 -28 4
-24 10 3 6 1 10 -5 10 -6 0 -8 5 -4 13 5 8 2 7 -10 -2 -13 -11 -14 -16 -4 -22
7 -4 -19 -8 -57 -8 -79 0 -91 5 -73 27 10 12 10 14 1 8 -7 -4 -13 -2 -13 3 0
6 6 11 14 11 7 0 19 7 26 15 8 10 17 12 24 6 8 -7 12 -2 11 17 0 15 5 27 12
27 6 0 15 4 20 9 5 5 3 6 -4 2 -7 -4 -13 -2 -13 3 0 26 39 9 54 -24z m2059
-77 c6 -9 19 -18 27 -21 8 -4 3 -5 -12 -4 -15 2 -31 7 -35 12 -5 4 -2 5 6 0
10 -5 12 -4 7 4 -4 6 -12 9 -17 6 -5 -4 -9 0 -9 7 0 8 -3 9 -8 3 -4 -6 -14
-10 -22 -10 -21 2 -31 -5 -24 -16 3 -5 11 -6 17 -2 21 13 38 12 44 -3 3 -8 19
-14 40 -14 20 0 32 -4 28 -10 -4 -6 -11 -8 -16 -5 -5 4 -6 -3 0 -17 4 -13 6
-28 4 -35 -2 -6 0 -14 6 -17 13 -8 -19 -66 -36 -66 -7 0 -13 5 -13 11 0 5 4 8
9 4 16 -9 31 27 20 47 -6 10 -7 23 -4 28 3 6 1 10 -5 10 -6 0 -9 4 -6 8 2 4
-15 8 -39 8 -24 0 -42 -4 -39 -7 2 -4 -2 -10 -8 -12 -7 -3 -1 -6 15 -6 15 -1
27 4 27 11 0 6 7 3 16 -8 14 -17 15 -17 10 -1 -3 11 -2 16 4 12 12 -7 13 -31
3 -38 -5 -2 -3 -3 2 -1 6 1 12 -7 12 -17 1 -12 -5 -19 -15 -19 -15 0 -15 2 -2
10 13 8 12 10 -2 10 -10 0 -18 -4 -18 -10 0 -5 -8 -10 -17 -10 -15 0 -16 2 -3
10 13 8 12 10 -2 10 -10 0 -18 -2 -18 -4 0 -2 -3 -11 -6 -19 -4 -12 0 -14 15
-10 16 4 19 1 14 -16 -3 -12 -10 -21 -16 -21 -6 0 -7 -3 -4 -7 4 -3 2 -12 -4
-19 -9 -11 -16 -11 -33 -2 -11 6 -22 11 -23 10 -11 -8 -21 1 -18 16 2 9 4 22
4 29 1 15 30 10 42 -8 7 -11 9 -11 9 4 0 10 -6 20 -13 22 -7 3 -13 19 -13 36
-1 22 1 27 7 18 6 -10 9 -6 9 14 0 15 -4 27 -9 27 -12 0 -2 38 16 67 11 17 23
21 49 19 19 -1 40 -9 47 -18z m-228 -60 c-2 -22 -7 -44 -12 -49 -5 -5 -35 -11
-66 -13 -53 -4 -57 -3 -58 17 0 21 0 21 -10 -1 -10 -26 -54 -28 -54 -2 0 8 5
14 12 13 7 -2 10 4 6 13 -5 15 -7 15 -15 0 -8 -14 -13 -15 -24 -5 -19 15 -18
2 1 -17 34 -35 9 -70 -42 -58 -21 6 -24 11 -18 33 6 24 5 25 -8 7 -13 -18 -14
-18 -24 11 -16 45 -3 58 64 59 32 1 69 4 83 7 14 4 43 9 64 12 22 3 41 7 43 9
2 2 16 3 32 4 27 1 28 -1 26 -40z m-735 -30 c0 4 9 8 19 9 21 2 27 -15 30 -82
2 -40 -6 -44 -14 -6 -2 11 -7 26 -10 31 -3 6 0 10 7 11 9 0 10 2 1 5 -7 3 -10
13 -7 22 5 15 4 14 -9 -1 -14 -16 -14 -23 -1 -54 9 -19 13 -41 11 -47 -9 -22
31 -15 54 10 12 13 19 24 16 24 -4 0 1 8 11 18 11 12 20 14 24 8 11 -16 10
-28 -2 -21 -6 4 -7 -1 -3 -11 6 -16 8 -15 16 4 6 12 17 22 26 23 9 0 24 2 34
4 14 3 17 -1 13 -18 -3 -12 -3 -17 -1 -11 7 14 51 6 65 -11 5 -6 11 -24 12
-39 1 -14 6 -26 10 -26 4 0 8 -7 8 -15 0 -8 -7 -15 -16 -15 -12 0 -15 7 -12
25 4 21 1 25 -18 25 -15 0 -24 -6 -24 -16 0 -20 -22 -42 -37 -37 -6 2 -9 13
-6 24 4 14 9 17 18 9 8 -7 12 -6 12 4 0 8 -8 13 -19 11 -10 -2 -18 0 -18 6 0
5 5 9 11 9 6 0 17 7 25 15 14 13 12 15 -18 14 -27 0 -30 -2 -13 -9 18 -8 19
-9 1 -9 -15 -1 -17 -6 -12 -28 5 -23 4 -25 -5 -10 -6 10 -8 24 -5 32 2 7 -3
19 -11 27 -15 11 -16 11 -10 -5 6 -15 3 -17 -13 -12 -13 4 -26 -2 -41 -20 -17
-18 -25 -22 -31 -13 -5 8 -8 3 -8 -14 0 -16 -5 -28 -11 -28 -5 0 -7 4 -4 10 3
5 1 18 -5 27 -9 16 -10 15 -5 -4 4 -14 2 -23 -4 -23 -6 0 -11 -4 -11 -10 0 -5
7 -10 15 -10 13 0 14 -4 4 -21 -8 -15 -8 -19 0 -15 6 4 11 0 11 -8 0 -9 -7
-16 -15 -16 -8 0 -15 -8 -15 -17 0 -14 2 -15 9 -4 11 18 17 4 16 -42 0 -34 3
-39 27 -44 15 -3 25 -9 23 -14 -3 -4 7 -2 22 6 21 11 30 12 42 2 11 -10 13 -9
9 3 -2 8 8 25 23 37 32 28 39 28 39 6 1 -13 5 -10 16 10 8 15 19 25 24 22 17
-11 11 7 -7 22 -10 8 -12 12 -5 8 7 -3 12 0 12 8 0 28 -26 13 -28 -17 -3 -38
-12 -48 -12 -13 0 15 -4 27 -10 27 -15 0 -12 40 5 56 8 9 16 13 16 10 1 -3 2
-10 3 -15 2 -17 16 -24 16 -8 0 9 5 19 12 23 8 5 9 0 5 -17 -5 -22 -5 -22 7
-6 7 9 19 17 27 17 10 0 10 -3 1 -12 -7 -7 -12 -17 -12 -22 0 -6 5 -4 10 4 8
12 10 10 9 -10 -1 -31 -17 -74 -18 -48 -1 9 -6 20 -13 24 -7 5 -9 2 -6 -7 16
-44 19 -59 8 -59 -6 0 -8 5 -5 10 10 16 -1 11 -16 -7 -10 -11 -10 -14 -1 -9 6
4 12 3 12 -3 0 -13 -59 -61 -76 -61 -8 0 -14 -4 -14 -8 0 -5 -6 -9 -12 -9 -7
0 -23 -3 -35 -7 -18 -6 -23 -4 -23 11 0 15 2 16 10 3 5 -8 10 -10 10 -4 0 6
-8 18 -17 25 -9 8 -14 10 -12 4 8 -14 -28 -47 -37 -34 -4 8 -9 7 -15 -2 -7
-11 -9 -11 -9 1 0 13 -1 13 -10 0 -8 -13 -10 -13 -10 2 0 21 -37 48 -56 41
-23 -9 -16 -19 12 -18 21 0 28 -5 30 -25 2 -14 1 -20 -3 -15 -10 13 -33 18
-33 7 0 -4 5 -13 12 -20 9 -9 7 -13 -5 -18 -9 -3 -17 -11 -17 -16 0 -6 6 -5
15 2 12 10 18 10 32 -1 11 -10 14 -10 9 -1 -4 7 -1 12 8 12 17 0 21 -12 9 -24
-4 -4 -9 -18 -10 -31 -3 -19 0 -23 12 -19 9 4 16 0 16 -7 1 -8 3 -25 4 -38 1
-14 -3 -31 -11 -38 -15 -15 -44 -17 -44 -3 0 13 36 31 45 22 5 -4 5 -2 1 5 -4
7 -14 10 -24 7 -14 -5 -14 -4 -2 4 8 6 18 8 22 6 4 -3 8 -1 8 4 0 6 -6 12 -14
15 -17 7 -38 -15 -34 -34 2 -8 -3 -13 -10 -11 -8 1 -11 -2 -7 -8 3 -5 1 -10
-4 -10 -14 0 -14 17 -1 25 15 9 12 25 -5 25 -8 0 -15 5 -15 11 0 5 5 7 10 4 6
-3 10 -1 10 4 0 6 -6 11 -12 12 -10 0 -10 2 0 6 6 2 12 11 12 19 0 8 5 14 10
14 6 0 10 4 10 10 0 5 -7 7 -15 4 -8 -4 -15 -12 -15 -20 0 -8 -4 -14 -8 -14
-5 0 -9 18 -10 40 -1 22 2 40 6 40 4 0 8 9 8 20 0 12 -5 19 -12 16 -7 -3 -15
6 -18 20 -5 17 0 31 15 47 20 20 21 20 15 2 -4 -11 -4 -16 0 -12 4 4 14 1 22
-6 13 -10 14 -9 7 2 -6 11 -4 13 8 8 8 -3 18 0 21 8 2 7 -2 16 -10 19 -8 3
-17 -1 -21 -9 -5 -13 -7 -13 -18 2 -14 19 -1 48 16 37 6 -3 8 6 5 20 -2 13 1
27 7 30 7 3 2 3 -10 0 -19 -4 -21 -2 -18 18 3 13 9 24 14 26 5 2 6 12 3 24 -4
16 -2 19 9 13 11 -6 11 -5 2 5 -6 7 -9 19 -6 27 3 8 0 19 -7 23 -17 11 -50 0
-50 -16 0 -8 -6 -14 -12 -14 -9 0 -9 -3 1 -9 8 -5 25 -7 37 -5 17 3 22 0 18
-10 -3 -7 -13 -13 -21 -12 -10 0 -20 -10 -24 -24 -4 -16 -7 -19 -8 -7 -1 9 -5
17 -10 17 -5 0 -7 20 -5 45 3 25 1 45 -3 45 -4 0 -8 10 -8 23 0 18 5 22 33 22
17 0 32 -3 32 -7 0 -5 -4 -8 -10 -8 -5 0 -10 -4 -10 -9 0 -5 8 -7 18 -4 19 4
27 33 10 33 -5 0 -7 4 -4 9 3 4 -1 17 -8 27 -13 17 -14 17 -9 -9 5 -25 3 -27
-18 -19 -13 5 -24 13 -26 19 -6 16 40 32 60 21 9 -5 17 -5 17 0z m-240 -19 c0
-5 5 -7 12 -3 7 4 8 3 4 -4 -4 -6 -13 -9 -21 -6 -10 4 -13 0 -10 -15 4 -23
-19 -30 -29 -8 -3 6 -5 3 -3 -7 1 -14 10 -20 28 -21 21 -1 25 2 21 17 -3 14 0
17 12 12 9 -4 16 -3 14 2 -2 5 0 10 5 12 4 1 7 0 7 -3 0 -3 0 -12 0 -21 0 -9
-5 -12 -12 -8 -7 4 -8 3 -4 -4 4 -6 13 -9 21 -5 8 3 15 0 15 -6 0 -6 -8 -11
-17 -11 -13 0 -15 -2 -5 -8 19 -13 23 -50 6 -60 -14 -8 -14 -10 0 -25 15 -14
15 -17 0 -32 -14 -13 -14 -20 -4 -46 9 -22 10 -33 2 -41 -8 -8 -8 -17 -1 -30
20 -37 0 -71 -36 -63 -11 3 -14 2 -7 -1 6 -3 12 -14 12 -25 0 -10 5 -19 10
-19 6 0 9 3 9 8 -3 17 2 32 10 32 16 0 -1 -50 -18 -51 -11 0 -12 -2 -3 -6 10
-4 10 -8 1 -19 -6 -7 -9 -20 -6 -28 3 -8 -1 -17 -9 -20 -9 -3 -13 -10 -10 -15
3 -5 -1 -12 -10 -15 -8 -3 -13 -10 -10 -15 4 -5 -9 -19 -28 -30 -38 -24 -50
-27 -40 -8 6 9 4 9 -7 1 -26 -20 -74 -16 -95 8 -15 18 -16 20 -1 9 16 -13 25
-2 10 13 -15 14 -10 54 6 51 20 -2 26 -22 12 -39 -10 -12 1 -13 76 -7 7 1 10
8 7 16 -5 11 -2 13 12 8 13 -5 15 -3 9 7 -5 8 -4 11 2 7 14 -9 25 20 18 44 -4
11 -2 19 4 19 6 0 11 -9 11 -20 0 -13 5 -18 15 -14 8 4 15 10 15 16 0 5 -4 6
-10 3 -5 -3 -10 1 -10 9 0 9 5 16 10 16 6 0 10 12 10 26 0 14 -4 23 -9 20 -11
-7 -9 13 2 32 5 6 5 16 2 22 -3 5 -2 17 3 27 7 11 6 23 -1 35 -9 14 -9 23 0
38 7 11 10 32 7 50 -6 27 -4 30 12 24 16 -6 17 -5 7 7 -18 18 -16 42 1 36 15
-6 30 16 19 27 -10 10 -25 7 -18 -4 3 -5 1 -10 -5 -10 -7 0 -9 8 -5 20 5 16 2
20 -16 20 -18 0 -19 -2 -9 -15 11 -13 10 -14 -4 -9 -9 3 -16 10 -16 16 0 5 -4
6 -10 3 -5 -3 -10 -22 -10 -41 0 -22 -8 -43 -21 -57 -16 -16 -20 -17 -16 -5 3
9 0 19 -9 22 -22 8 -46 -5 -39 -21 4 -12 0 -14 -15 -10 -11 3 -23 1 -26 -4 -4
-6 -10 -6 -18 0 -8 7 -12 5 -12 -9 0 -10 4 -16 8 -14 13 8 9 -6 -6 -22 -11
-11 -16 -11 -19 -1 -3 6 -4 2 -4 -10 1 -22 16 -26 29 -8 5 6 8 5 8 -3 0 -8 -9
-16 -20 -19 -11 -3 -17 -9 -15 -14 3 -4 13 -5 22 -2 14 5 14 3 -1 -19 -13 -21
-14 -27 -4 -32 7 -3 3 -3 -9 0 -13 3 -23 1 -23 -5 0 -6 5 -11 11 -11 5 0 8 -4
4 -9 -3 -5 -1 -12 4 -15 4 -3 9 -17 9 -32 0 -16 -3 -21 -8 -14 -5 8 -10 9 -14
2 -3 -6 -1 -12 5 -14 6 -2 1 -12 -10 -22 -21 -19 -21 -19 -21 0 0 16 -2 17
-11 4 -9 -13 -10 -13 -7 0 1 8 -4 32 -11 53 -7 21 -10 41 -7 44 3 4 1 12 -4
18 -10 12 4 117 18 140 3 5 7 20 8 34 2 13 10 31 20 40 15 15 15 14 0 -15 -15
-31 -15 -32 7 -26 l22 5 -20 -24 c-11 -13 -16 -21 -11 -17 5 4 16 2 25 -5 14
-11 14 -10 2 6 -7 9 -9 17 -3 17 5 0 12 9 15 20 3 10 0 18 -5 17 -6 -1 -13 4
-15 11 -4 11 -1 12 16 2 12 -6 20 -14 17 -18 -2 -4 2 -13 10 -20 12 -11 14 -9
14 8 0 21 15 27 23 10 3 -6 4 -5 3 2 -2 7 -11 12 -20 12 -17 -2 -18 -1 -20 35
0 13 4 26 11 28 8 3 10 -4 8 -20 -3 -16 0 -24 10 -24 10 0 12 5 4 19 -8 15 -6
18 12 18 14 0 19 -5 16 -14 -3 -8 2 -20 11 -27 14 -11 15 -11 5 0 -14 16 -6
44 11 34 8 -4 8 -3 0 6 -14 15 -76 22 -94 11 -7 -4 -10 -15 -7 -24 8 -21 -10
-31 -28 -16 -16 13 -10 34 6 25 5 -3 6 0 3 8 -5 13 8 24 29 25 5 0 22 12 37
27 27 26 30 27 53 12 15 -10 29 -12 38 -6 8 5 10 9 4 9 -5 0 -3 5 5 10 12 7
10 9 -8 7 -12 0 -22 -5 -22 -10 0 -4 -5 -5 -10 -2 -8 5 -7 11 1 21 13 16 99
19 99 3z m-406 -46 c4 -4 15 -8 23 -8 9 0 18 -6 21 -14 2 -8 1 -11 -4 -8 -5 3
-9 -10 -9 -28 -1 -30 8 -40 11 -14 4 31 7 30 15 -5 6 -27 6 -43 -2 -52 -8 -10
-8 -14 0 -14 15 0 14 -23 -1 -38 -16 -16 -19 -42 -5 -39 14 2 12 -68 -3 -107
-10 -27 -44 -36 -53 -13 -3 6 -6 2 -6 -10 -1 -24 14 -39 24 -23 12 19 22 10
23 -21 1 -28 -2 -30 -31 -27 -26 2 -32 -1 -38 -22 -7 -24 -7 -24 -8 -2 -1 12
-6 22 -12 22 -5 0 -7 -5 -4 -11 8 -12 -26 -40 -39 -32 -5 4 -6 1 -3 -4 7 -12
-16 -36 -25 -27 -3 3 -9 0 -14 -7 -4 -7 -3 -10 4 -5 6 3 13 2 16 -2 3 -5 17
-7 31 -5 20 4 23 8 14 24 -11 21 -11 20 31 24 49 4 50 4 44 18 -3 8 2 14 11
14 18 0 18 1 2 -31 -8 -14 -17 -23 -20 -19 -4 3 -7 0 -7 -8 0 -12 -2 -12 -9 0
-5 7 -14 10 -20 6 -9 -5 -9 -10 0 -21 6 -8 10 -16 8 -17 -2 -1 -15 -11 -28
-22 -21 -18 -24 -18 -18 -2 4 9 4 17 1 17 -3 0 -9 -12 -15 -28 -9 -26 -80 -80
-99 -75 -5 2 -7 -3 -4 -10 6 -15 -43 -53 -81 -63 -22 -5 -26 -4 -20 7 6 11 5
11 -5 2 -14 -13 -64 0 -92 25 -24 21 -22 32 5 31 12 -1 32 1 44 4 13 3 25 2
28 -3 3 -5 -3 -7 -15 -5 -11 2 -22 0 -25 -5 -3 -5 4 -7 15 -5 15 3 20 -2 21
-18 1 -21 2 -19 15 22 3 9 9 7 23 -10 l18 -23 -5 33 c-2 18 -7 29 -11 25 -9
-13 -31 -16 -31 -4 0 5 15 17 33 26 17 9 35 22 39 28 5 7 8 6 8 -4 0 -13 1
-13 11 0 9 12 10 11 6 -6 -2 -12 1 -21 7 -21 15 0 15 39 1 49 -6 5 -6 8 1 8
18 0 86 73 112 119 13 22 21 41 18 41 -3 0 0 13 5 30 6 16 14 28 17 26 4 -2 7
6 8 17 2 32 8 60 18 76 6 10 5 12 -2 7 -18 -11 -14 5 5 19 20 15 27 46 8 38
-11 -3 -14 5 -12 36 1 23 7 43 14 46 19 7 29 -25 12 -36 -11 -7 -11 -9 -1 -9
7 0 11 -4 7 -9 -3 -5 -2 -12 3 -15 15 -9 13 54 -3 77 -8 13 -12 27 -8 30 3 4
4 7 1 7 -3 0 -12 -8 -19 -17 -10 -11 -10 -14 -1 -9 6 4 12 2 12 -3 0 -19 -22
-12 -27 9 -4 13 -14 20 -30 20 -20 0 -24 4 -19 18 5 15 4 15 -7 2 -15 -19 -37
-24 -37 -9 0 6 -9 1 -21 -12 -11 -13 -18 -19 -15 -13 3 6 -1 11 -8 11 -8 0
-12 -6 -9 -14 6 -15 -13 -18 -22 -3 -3 6 -12 10 -18 10 -8 0 -7 -3 2 -9 11 -7
11 -13 -3 -32 -9 -13 -18 -22 -20 -19 -2 3 -15 -10 -30 -27 -15 -18 -25 -33
-21 -33 4 0 2 -7 -5 -14 -8 -11 -18 -12 -34 -6 -13 4 -28 5 -35 0 -9 -5 -5 -8
10 -8 13 -1 33 -3 44 -6 11 -2 22 -5 24 -5 2 -1 -2 -8 -9 -16 -9 -10 -9 -15
-1 -15 7 0 11 -20 11 -50 0 -41 -3 -50 -17 -50 -15 0 -16 -2 -3 -10 8 -5 16
-20 17 -33 1 -22 -2 -24 -57 -24 -51 0 -58 2 -57 18 1 11 7 19 15 19 7 0 10
-4 7 -10 -4 -6 1 -7 11 -3 13 5 15 3 9 -8 -5 -9 -1 -7 11 3 16 14 23 15 33 5
9 -8 8 -1 -2 19 -9 17 -13 35 -9 38 3 4 -2 4 -13 0 -11 -5 -14 -9 -7 -12 19
-6 14 -32 -5 -32 -26 0 -37 11 -50 50 -15 46 -14 192 1 183 6 -3 5 0 -1 8 -16
16 -17 63 -2 53 8 -4 8 0 0 15 -14 25 -5 45 16 37 8 -3 11 -1 8 4 -3 6 2 11
12 11 10 1 30 3 45 4 29 4 48 -12 51 -43 1 -17 27 -28 27 -11 0 11 65 41 82
38 7 -2 31 5 53 15 22 9 52 16 68 13 15 -2 27 0 27 5 0 10 14 11 24 1z m1688
-17 c3 3 9 1 13 -5 5 -9 -9 -14 -35 -13 -3 0 -12 -7 -20 -16 -13 -14 -12 -15
5 -8 11 5 29 10 40 13 18 4 18 3 -4 -16 -12 -12 -27 -18 -33 -15 -10 7 -48
-24 -48 -39 0 -5 7 -6 16 -3 8 3 12 2 9 -4 -3 -6 3 -10 14 -10 11 0 23 5 27
12 5 7 2 9 -9 5 -9 -3 -18 0 -21 8 -6 18 10 29 20 14 5 -8 13 -4 25 12 10 13
19 19 19 12 0 -6 3 -19 7 -29 5 -14 3 -16 -12 -10 -11 4 -16 4 -12 0 4 -4 -3
-19 -15 -32 -13 -14 -17 -22 -10 -18 8 5 12 -1 12 -18 0 -16 5 -25 13 -23 7 1
13 -11 15 -30 4 -38 -7 -42 -34 -11 -10 12 -13 18 -6 14 6 -4 12 -2 12 3 0 6
-4 11 -9 11 -5 0 -7 8 -5 18 4 13 -2 17 -23 18 -15 1 -22 -1 -15 -3 9 -4 7
-12 -7 -32 -19 -27 -19 -27 0 -28 15 -1 19 3 14 17 -3 10 0 22 6 26 9 5 10 2
6 -10 -5 -12 4 -27 29 -51 20 -19 31 -36 24 -40 -5 -3 -10 -11 -10 -16 0 -6 5
-7 10 -4 6 3 10 4 10 1 0 -3 -13 -12 -30 -21 -32 -16 -34 -16 -24 9 3 9 11 13
18 9 6 -4 6 0 -2 9 -10 13 -10 17 0 21 7 3 4 5 -7 4 -17 -1 -20 -7 -19 -45 1
-25 7 -48 14 -52 9 -5 9 -9 1 -14 -14 -9 -33 2 -26 14 3 5 3 21 -1 35 l-6 25
-19 -21 c-22 -25 -23 -22 -9 16 8 21 7 26 -2 22 -7 -2 -12 -9 -11 -15 1 -5 -7
-8 -17 -5 -27 7 -25 12 11 25 17 6 27 13 22 17 -10 8 -10 42 0 59 5 7 3 12 -5
12 -8 0 -9 3 -3 8 6 4 10 17 9 29 -1 12 3 21 9 20 5 -1 12 4 15 12 3 9 0 12
-10 9 -10 -4 -15 3 -16 24 -1 16 2 27 7 24 5 -3 11 1 14 9 4 9 1 12 -7 9 -7
-3 -13 2 -13 10 0 8 6 12 13 9 6 -2 18 9 25 26 12 27 15 28 30 16 8 -8 18 -12
21 -9z m-2290 -57 c21 -23 37 -48 34 -55 -3 -7 0 -16 6 -20 7 -5 8 -2 3 7 -6
10 -5 11 4 3 11 -10 36 -88 48 -148 4 -23 3 -27 -8 -21 -11 7 -12 6 -2 -6 7
-8 12 -24 12 -34 1 -40 5 -55 13 -55 4 0 8 -9 8 -19 0 -18 -21 -23 -36 -8 -11
11 -44 8 -44 -4 0 -6 -10 -23 -21 -37 -12 -15 -20 -20 -17 -12 3 8 1 27 -3 43
-4 15 -4 27 -1 27 4 0 6 19 4 41 -3 28 -7 37 -13 28 -6 -9 -9 4 -9 36 0 28 6
57 13 64 6 7 8 12 2 11 -20 -4 -26 0 -19 12 10 16 12 58 3 64 -4 2 -13 -4 -20
-13 -8 -9 -9 -14 -3 -10 7 4 14 -2 17 -14 4 -16 3 -18 -9 -8 -16 13 -19 7 -29
-64 -5 -36 -10 -47 -21 -43 -10 4 -14 -2 -13 -17 0 -12 3 -16 6 -9 9 22 20 12
19 -18 -1 -16 -6 -32 -13 -34 -7 -3 -11 0 -9 7 1 7 1 8 -2 3 -2 -4 -8 -2 -13
5 -6 10 -8 7 -6 -8 0 -12 5 -19 9 -17 4 3 8 1 8 -5 0 -5 -4 -13 -10 -16 -15
-9 -13 -58 3 -53 6 3 14 13 15 23 3 10 0 15 -7 11 -15 -10 -13 5 3 27 8 11 17
14 20 8 4 -5 3 -12 -1 -14 -5 -3 -7 -25 -6 -49 2 -62 2 -62 16 -50 9 8 17 8
27 0 13 -8 12 -9 -1 -5 -9 3 -22 0 -28 -6 -9 -9 -14 -8 -21 2 -6 10 -8 6 -7
-15 0 -16 0 -59 -1 -96 -2 -65 -3 -68 -27 -68 -14 0 -29 8 -35 19 -13 25 -13
41 0 21 8 -13 10 -12 10 3 0 9 6 17 13 17 8 0 7 3 -3 10 -9 6 -17 5 -22 -3 -5
-8 -8 -6 -8 6 0 9 5 17 11 17 6 0 9 9 6 20 -5 21 9 28 15 8 3 -7 7 -5 11 6 4
9 3 15 -2 12 -15 -10 -28 18 -20 44 4 14 8 18 8 10 1 -13 3 -13 10 -1 5 8 6
22 2 30 -4 9 -6 42 -4 74 1 31 -2 57 -7 57 -5 0 -7 -7 -4 -15 4 -8 2 -15 -3
-15 -5 0 -10 14 -11 30 -1 17 2 30 8 30 5 0 10 -4 10 -10 0 -5 5 -10 11 -10 5
0 7 5 4 10 -3 6 -1 10 4 10 6 0 11 9 11 21 0 11 4 18 8 15 4 -2 8 5 9 17 0 12
-1 16 -4 10 -5 -15 -33 -18 -33 -4 0 5 3 11 8 14 4 2 2 2 -5 1 -16 -4 -37 22
-24 30 5 3 7 16 3 28 -3 14 -2 19 6 14 7 -4 12 -2 12 3 0 6 -4 11 -10 11 -5 0
-10 5 -10 11 0 5 4 8 8 5 5 -3 9 1 9 9 0 8 -4 12 -9 9 -4 -3 -8 -1 -8 5 0 5 5
13 10 16 6 4 7 11 4 17 -4 7 -2 8 4 4 7 -4 12 -1 12 9 0 9 -4 14 -9 11 -5 -4
-7 2 -4 12 3 14 16 19 50 21 42 2 49 -1 85 -40z m1789 -124 c-4 -5 -7 -19 -7
-30 1 -15 7 -19 24 -17 22 3 32 -21 12 -33 -5 -3 -7 -11 -5 -18 3 -7 6 -35 9
-64 2 -41 0 -53 -13 -59 -9 -4 -18 -7 -21 -6 -3 0 -5 -11 -5 -24 0 -23 19 -29
21 -6 1 7 2 18 3 25 1 7 6 5 12 -6 8 -13 7 -22 -3 -34 -8 -10 -8 -14 -1 -10 6
4 14 3 17 -2 12 -18 -13 -22 -38 -6 -14 9 -27 12 -30 7 -3 -6 1 -12 9 -16 8
-3 15 -12 15 -20 0 -8 5 -18 11 -22 8 -4 9 0 4 15 -5 16 -3 20 10 15 9 -4 14
-13 11 -21 -3 -8 -1 -11 4 -8 6 3 10 -1 10 -10 0 -13 -6 -15 -32 -10 -43 9
-54 20 -39 38 9 12 8 16 -4 21 -15 5 -15 25 0 59 5 11 2 24 -7 35 -17 19 -13
45 5 36 7 -3 5 0 -4 8 -9 7 -14 19 -11 27 3 8 0 11 -7 7 -6 -4 -11 -3 -11 3 0
15 18 23 25 11 4 -6 11 -8 16 -5 13 9 11 -9 -3 -24 -11 -11 -9 -13 10 -8 19 5
21 3 11 -9 -15 -18 -3 -32 13 -16 10 10 10 17 -1 34 -10 16 -10 22 -1 28 9 6
9 9 -1 12 -11 4 -10 10 6 29 11 13 13 18 4 11 -9 -6 -19 -9 -22 -5 -11 11 -58
9 -53 -2 2 -5 9 -9 15 -7 7 1 10 -3 6 -10 -4 -7 0 -5 8 5 19 22 31 7 14 -17
-12 -16 -14 -15 -36 8 -16 17 -21 31 -16 46 5 16 10 18 20 10 9 -7 16 -6 24 4
9 11 9 16 0 22 -8 5 -10 3 -4 -7 6 -11 5 -11 -5 -2 -7 6 -19 9 -26 6 -8 -3
-14 0 -14 7 0 7 8 10 20 7 11 -3 20 -2 20 2 0 4 9 7 19 7 12 0 17 -4 12 -11z
m-1688 -258 c18 -12 25 -23 22 -39 -3 -12 0 -27 5 -33 5 -6 9 -20 8 -30 -1
-11 3 -51 7 -89 6 -50 5 -67 -4 -62 -6 4 -11 1 -11 -6 -1 -7 -7 -2 -15 12 -9
15 -14 19 -15 10 0 -12 -2 -12 -9 -2 -6 11 -10 10 -15 -4 -5 -12 -10 -14 -18
-6 -6 6 -17 8 -25 5 -11 -5 -14 2 -13 28 1 19 1 36 0 39 -8 23 -7 47 3 59 9
12 9 13 0 8 -8 -5 -11 -1 -8 12 2 13 -3 22 -16 26 -22 7 -26 25 -5 25 7 0 21
11 30 25 16 25 42 26 33 2 -2 -7 2 -20 11 -30 8 -9 12 -20 8 -24 -4 -4 -16 3
-26 17 -18 23 -19 24 -14 3 6 -23 29 -37 45 -27 6 3 8 -5 5 -18 -3 -18 1 -23
18 -23 23 0 34 29 15 40 -5 3 -6 -2 -3 -12 5 -16 4 -16 -10 1 -9 11 -16 31
-16 45 0 21 -2 23 -10 11 -8 -12 -10 -10 -10 11 0 14 -5 30 -11 36 -18 18 13
11 44 -10z"/>
</g>
</svg>
